<svg width="166" height="38" viewBox="0 0 166 38" fill="none" xmlns="http://www.w3.org/2000/svg">
<g clip-path="url(#clip0_1620_436736)">
<path d="M20.331 17.4399L6.53703 3.6089L24.087 13.6839L20.331 17.4399ZM2.93803 2.7959C2.12503 3.2209 1.58203 3.9959 1.58203 5.0019V32.5829C1.58203 33.5889 2.12603 34.3639 2.93803 34.7889L18.976 18.7889L2.93803 2.7959ZM29.512 16.8959L25.831 14.7649L21.725 18.7959L25.831 22.8269L29.587 20.6959C30.712 19.8029 30.712 17.7899 29.512 16.8959ZM6.53803 33.9839L24.088 23.9089L20.332 20.1529L6.53803 33.9839Z" fill="white"/>
</g>
<path d="M51.1781 4.80946C51.1781 5.97453 50.8862 6.99479 50.1578 7.72323C49.2845 8.59648 48.2643 9.0353 46.9522 9.0353C45.6401 9.0353 44.6199 8.59867 43.7466 7.72323C42.8734 6.84778 42.4346 5.82972 42.4346 4.51765C42.4346 3.20558 42.8712 2.18532 43.7466 1.31207C44.6199 0.43882 45.6401 0 46.9522 0C47.5358 0 48.1173 0.144811 48.7009 0.436626C49.2845 0.728441 49.7212 1.02026 50.013 1.45688L49.2845 2.18532C48.7009 1.45688 47.9725 1.16507 46.9522 1.16507C46.079 1.16507 45.2035 1.45688 44.6199 2.18532C43.8915 2.76895 43.5996 3.6422 43.5996 4.66246C43.5996 5.68272 43.8915 6.55597 44.6199 7.1396C45.3483 7.72323 46.0768 8.15985 46.9522 8.15985C47.9725 8.15985 48.7009 7.86804 49.4294 7.1396C49.866 6.70297 50.1578 6.11934 50.1578 5.3909H46.9522V4.22583H51.1781V4.80946ZM57.8788 1.16726H53.9448V3.93621H57.587V4.95647H53.9448V7.72542H57.8788V8.89049H52.7797V0.147005H57.8788V1.16726ZM62.6883 8.8883H61.5232V1.16507H59.0461V0.14481H65.1654V1.16507H62.6883V8.8883ZM69.3913 8.8883V0.147005H70.5563V8.89049H69.3913V8.8883ZM75.5106 8.8883H74.3455V1.16507H71.8684V0.14481H77.8429V1.16507H75.3658V8.8883H75.5106ZM89.3532 7.72323C88.4799 8.59648 87.4597 9.0353 86.1476 9.0353C84.8355 9.0353 83.8153 8.59867 82.942 7.72323C82.0688 6.84998 81.63 5.82972 81.63 4.51765C81.63 3.20558 82.0666 2.18532 82.942 1.31207C83.8153 0.43882 84.8355 0 86.1476 0C87.4597 0 88.4799 0.436626 89.3532 1.31207C90.2264 2.18532 90.6653 3.20558 90.6653 4.51765C90.6653 5.82972 90.2264 6.84998 89.3532 7.72323ZM83.8153 6.99479C84.3989 7.57842 85.2722 8.01504 86.1476 8.01504C87.0209 8.01504 87.8963 7.72323 88.4799 6.99479C89.0636 6.41116 89.5002 5.53791 89.5002 4.51765C89.5002 3.49739 89.2084 2.62414 88.4799 2.04051C87.8963 1.45688 87.023 1.02026 86.1476 1.02026C85.2743 1.02026 84.3989 1.31207 83.8153 2.04051C83.2316 2.62414 82.795 3.49739 82.795 4.51765C82.795 5.53791 83.0868 6.41116 83.8153 6.99479ZM92.2669 8.8883V0.147005H93.579L97.8049 6.99479V0.147005H98.9699V8.89049H97.8049L93.2872 1.75089V8.89049H92.2669V8.8883Z" fill="white"/>
<path d="M81.338 19.817C77.8406 19.817 75.0716 22.439 75.0716 26.0834C75.0716 29.5808 77.8406 32.3497 81.338 32.3497C84.8354 32.3497 87.6043 29.7278 87.6043 26.0834C87.6043 22.2942 84.8354 19.817 81.338 19.817ZM81.338 29.7256C79.4445 29.7256 77.8406 28.1217 77.8406 25.9364C77.8406 23.751 79.4445 22.1471 81.338 22.1471C83.2315 22.1471 84.8354 23.604 84.8354 25.9364C84.8354 28.1217 83.2337 29.7256 81.338 29.7256ZM67.7872 19.817C64.2899 19.817 61.5209 22.439 61.5209 26.0834C61.5209 29.5808 64.2899 32.3497 67.7872 32.3497C71.2846 32.3497 74.0536 29.7278 74.0536 26.0834C74.0536 22.2942 71.2846 19.817 67.7872 19.817ZM67.7872 29.7256C65.8937 29.7256 64.2898 28.1217 64.2898 25.9364C64.2898 23.751 65.8937 22.1471 67.7872 22.1471C69.6807 22.1471 71.2846 23.604 71.2846 25.9364C71.2846 28.1217 69.6829 29.7256 67.7872 29.7256ZM51.6145 21.7105V24.3325H57.8809C57.7361 25.7894 57.1524 26.9544 56.424 27.6829C55.5508 28.5561 54.0917 29.5764 51.6145 29.5764C47.6805 29.5764 44.7668 26.5156 44.7668 22.5816C44.7668 18.6476 47.8275 15.5868 51.6145 15.5868C53.655 15.5868 55.2567 16.46 56.424 17.4803L58.3175 15.5868C56.7136 14.1299 54.6753 12.9648 51.7615 12.9648C46.5155 12.9648 42 17.3355 42 22.5816C42 27.8277 46.5176 32.1983 51.7615 32.1983C54.6753 32.1983 56.7158 31.3251 58.4645 29.4294C60.2132 27.6807 60.7968 25.2035 60.7968 23.31C60.7968 22.7264 60.7968 22.145 60.652 21.7061L51.6145 21.7105ZM117.767 23.751C117.183 22.2942 115.726 19.817 112.521 19.817C109.315 19.817 106.693 22.2942 106.693 26.0834C106.693 29.5808 109.315 32.3497 112.812 32.3497C115.581 32.3497 117.33 30.601 117.911 29.5808L115.871 28.1239C115.142 29.1441 114.267 29.8726 112.81 29.8726C111.353 29.8726 110.478 29.2889 109.749 27.9791L118.054 24.4817L117.767 23.751ZM109.315 25.7894C109.315 23.457 111.208 22.1471 112.521 22.1471C113.541 22.1471 114.561 22.7308 114.853 23.4592L109.315 25.7894ZM102.467 31.7639H105.236V13.5507H102.467V31.7639ZM98.0943 21.1269C97.3659 20.3985 96.2008 19.67 94.7439 19.67C91.6832 19.67 88.7694 22.439 88.7694 25.9364C88.7694 29.4338 91.5384 32.0557 94.7439 32.0557C96.2008 32.0557 97.3659 31.3273 97.9495 30.5988H98.0943V31.4721C98.0943 33.8044 96.7823 35.1143 94.7439 35.1143C93.1401 35.1143 91.975 33.9492 91.6832 32.9289L89.3508 33.9492C90.0793 35.5531 91.828 37.5914 94.8887 37.5914C98.0943 37.5914 100.716 35.6979 100.716 31.1803V20.1066H98.0943V21.1269ZM94.8887 29.7256C92.9952 29.7256 91.3914 28.1217 91.3914 25.9364C91.3914 23.751 92.9952 22.1471 94.8887 22.1471C96.7823 22.1471 98.2391 23.751 98.2391 25.9364C98.2391 28.1217 96.7844 29.7256 94.8887 29.7256ZM130.442 13.5507H123.886V31.7639H126.655V24.9161H130.444C133.505 24.9161 136.419 22.7308 136.419 19.2334C136.419 15.736 133.503 13.5507 130.442 13.5507ZM130.589 22.2942H126.655V16.0278H130.589C132.629 16.0278 133.795 17.7765 133.795 19.0886C133.647 20.6903 132.482 22.2942 130.589 22.2942ZM147.345 19.67C145.305 19.67 143.266 20.5433 142.536 22.439L145.013 23.4592C145.597 22.439 146.47 22.1471 147.49 22.1471C148.947 22.1471 150.259 23.0204 150.404 24.4795V24.6243C149.967 24.3325 148.8 23.8958 147.635 23.8958C145.013 23.8958 142.389 25.3527 142.389 27.9747C142.389 30.4518 144.574 32.0535 146.906 32.0535C148.8 32.0535 149.675 31.1803 150.404 30.3048H150.549V31.7617H153.171V24.7669C152.881 21.5657 150.406 19.67 147.345 19.67ZM147.053 29.7256C146.18 29.7256 144.868 29.2889 144.868 28.1217C144.868 26.6648 146.472 26.2282 147.782 26.2282C148.947 26.2282 149.531 26.52 150.259 26.8118C149.967 28.5583 148.51 29.7256 147.053 29.7256ZM162.353 20.1066L159.292 27.9747H159.147L155.942 20.1066H153.028L157.837 31.1803L155.068 37.2996H157.837L165.269 20.1066H162.353ZM137.873 31.7639H140.642V13.5507H137.873V31.7639Z" fill="white"/>
<defs>
<clipPath id="clip0_1620_436736">
<rect width="32" height="32" fill="white" transform="translate(0 2.7959)"/>
</clipPath>
</defs>
</svg>
