<svg width="145" height="130" viewBox="0 0 145 130" fill="none" xmlns="http://www.w3.org/2000/svg">
<g opacity="0.2">
<path d="M75.2773 67.7855C75.2773 67.8953 75.1921 67.9895 75.076 67.9895C74.9599 67.9895 74.8747 67.8953 74.8747 67.7855C74.8747 67.6704 74.9676 67.5815 75.076 67.5815C75.1896 67.5815 75.2773 67.6678 75.2773 67.7855Z" fill="#3244FF"/>
<path d="M74.6477 69.2238C74.6477 69.3336 74.5573 69.4278 74.4464 69.4278C74.3354 69.4278 74.2451 69.3336 74.2451 69.2238C74.2451 69.114 74.338 69.0198 74.4464 69.0198C74.5547 69.0198 74.6477 69.114 74.6477 69.2238Z" fill="#3244FF"/>
<path d="M73.5328 70.7066C73.644 70.7066 73.7341 70.6152 73.7341 70.5026C73.7341 70.3899 73.644 70.2986 73.5328 70.2986C73.4216 70.2986 73.3315 70.3899 73.3315 70.5026C73.3315 70.6152 73.4216 70.7066 73.5328 70.7066Z" fill="#3244FF"/>
<path d="M72.5754 71.5565C72.5754 71.6663 72.4825 71.7604 72.3741 71.7604C72.2657 71.7604 72.1728 71.6663 72.1728 71.5565C72.1728 71.4414 72.2631 71.3525 72.3741 71.3525C72.4851 71.3525 72.5754 71.4388 72.5754 71.5565Z" fill="#3244FF"/>
<path d="M71.2309 72.3462C71.2309 72.456 71.138 72.5424 71.0296 72.5424C70.9161 72.5424 70.8283 72.456 70.8283 72.3462C70.8283 72.2312 70.9135 72.1422 71.0296 72.1422C71.1458 72.1422 71.2309 72.2285 71.2309 72.3462Z" fill="#3244FF"/>
<path d="M69.7471 72.8352C69.7471 72.9451 69.6619 73.0314 69.5458 73.0314C69.4296 73.0314 69.3445 72.9451 69.3445 72.8352C69.3445 72.7202 69.4374 72.6313 69.5458 72.6313C69.6593 72.6313 69.7471 72.7176 69.7471 72.8352Z" fill="#3244FF"/>
<path d="M68 73.2013C68.1112 73.2013 68.2013 73.11 68.2013 72.9974C68.2013 72.8847 68.1112 72.7934 68 72.7934C67.8888 72.7934 67.7987 72.8847 67.7987 72.9974C67.7987 73.11 67.8888 73.2013 68 73.2013Z" fill="#3244FF"/>
<path d="M66.6555 72.8352C66.6555 72.9451 66.5652 73.0314 66.4542 73.0314C66.3407 73.0314 66.2529 72.9451 66.2529 72.8352C66.2529 72.7202 66.3381 72.6313 66.4542 72.6313C66.5703 72.6313 66.6555 72.7176 66.6555 72.8352Z" fill="#3244FF"/>
<path d="M65.1717 72.3462C65.1717 72.456 65.0865 72.5424 64.9704 72.5424C64.8543 72.5424 64.7691 72.456 64.7691 72.3462C64.7691 72.2312 64.8594 72.1422 64.9704 72.1422C65.0839 72.1422 65.1717 72.2285 65.1717 72.3462Z" fill="#3244FF"/>
<path d="M63.8246 71.5565C63.8246 71.6663 63.7317 71.7604 63.6233 71.7604C63.5149 71.7604 63.422 71.6663 63.422 71.5565C63.422 71.4414 63.5149 71.3525 63.6233 71.3525C63.7317 71.3525 63.8246 71.4388 63.8246 71.5565Z" fill="#3244FF"/>
<path d="M62.4672 70.7066C62.5784 70.7066 62.6685 70.6152 62.6685 70.5026C62.6685 70.3899 62.5784 70.2986 62.4672 70.2986C62.356 70.2986 62.2659 70.3899 62.2659 70.5026C62.2659 70.6152 62.356 70.7066 62.4672 70.7066Z" fill="#3244FF"/>
<path d="M61.7524 69.2238C61.7524 69.3336 61.662 69.4278 61.5511 69.4278C61.4401 69.4278 61.3498 69.3336 61.3498 69.2238C61.3498 69.114 61.4401 69.0198 61.5511 69.0198C61.662 69.0198 61.7524 69.114 61.7524 69.2238Z" fill="#3244FF"/>
<path d="M61.1227 67.7855C61.1227 67.8953 61.0324 67.9895 60.9214 67.9895C60.8079 67.9895 60.7201 67.8953 60.7201 67.7855C60.7201 67.6704 60.8053 67.5815 60.9214 67.5815C61.0375 67.5815 61.1227 67.6678 61.1227 67.7855Z" fill="#3244FF"/>
<path d="M60.795 66.2426C60.795 66.3524 60.7021 66.4466 60.5937 66.4466C60.4853 66.4466 60.3924 66.3524 60.3924 66.2426C60.3924 66.1328 60.4853 66.0386 60.5937 66.0386C60.7021 66.0386 60.795 66.1301 60.795 66.2426Z" fill="#3244FF"/>
<path d="M60.795 64.6631C60.795 64.7729 60.7021 64.8671 60.5937 64.8671C60.4853 64.8671 60.3924 64.7755 60.3924 64.6631C60.3924 64.5506 60.4853 64.4591 60.5937 64.4591C60.7021 64.4591 60.795 64.5532 60.795 64.6631Z" fill="#3244FF"/>
<path d="M61.1227 63.1202C61.1227 63.2352 61.0324 63.3241 60.9214 63.3241C60.8079 63.3241 60.7201 63.2378 60.7201 63.1202C60.7201 63.0025 60.8053 62.9162 60.9214 62.9162C61.0375 62.9162 61.1227 63.0103 61.1227 63.1202Z" fill="#3244FF"/>
<path d="M61.7524 61.6819C61.7524 61.7917 61.662 61.8858 61.5511 61.8858C61.4401 61.8858 61.3498 61.7917 61.3498 61.6819C61.3498 61.572 61.4401 61.4779 61.5511 61.4779C61.662 61.4779 61.7524 61.572 61.7524 61.6819Z" fill="#3244FF"/>
<path d="M62.4672 60.6071C62.5784 60.6071 62.6685 60.5157 62.6685 60.4031C62.6685 60.2904 62.5784 60.1991 62.4672 60.1991C62.356 60.1991 62.2659 60.2904 62.2659 60.4031C62.2659 60.5157 62.356 60.6071 62.4672 60.6071Z" fill="#3244FF"/>
<path d="M63.8246 59.3492C63.8246 59.4643 63.7317 59.5532 63.6233 59.5532C63.5149 59.5532 63.422 59.4669 63.422 59.3492C63.422 59.2315 63.5149 59.1452 63.6233 59.1452C63.7317 59.1452 63.8246 59.2368 63.8246 59.3492Z" fill="#3244FF"/>
<path d="M65.1717 58.5594C65.1717 58.6745 65.0865 58.7634 64.9704 58.7634C64.8543 58.7634 64.7691 58.6771 64.7691 58.5594C64.7691 58.4418 64.8594 58.3633 64.9704 58.3633C65.0839 58.3633 65.1717 58.4496 65.1717 58.5594Z" fill="#3244FF"/>
<path d="M66.6555 58.0704C66.6555 58.1855 66.5652 58.2744 66.4542 58.2744C66.3407 58.2744 66.2529 58.1881 66.2529 58.0704C66.2529 57.9527 66.3381 57.8743 66.4542 57.8743C66.5703 57.8743 66.6555 57.9606 66.6555 58.0704Z" fill="#3244FF"/>
<path d="M68 58.1123C68.1112 58.1123 68.2013 58.0209 68.2013 57.9083C68.2013 57.7956 68.1112 57.7043 68 57.7043C67.8888 57.7043 67.7987 57.7956 67.7987 57.9083C67.7987 58.0209 67.8888 58.1123 68 58.1123Z" fill="#3244FF"/>
<path d="M69.7471 58.0704C69.7471 58.1855 69.6619 58.2744 69.5458 58.2744C69.4296 58.2744 69.3445 58.1881 69.3445 58.0704C69.3445 57.9527 69.4374 57.8743 69.5458 57.8743C69.6593 57.8743 69.7471 57.9606 69.7471 58.0704Z" fill="#3244FF"/>
<path d="M71.2309 58.5594C71.2309 58.6745 71.138 58.7634 71.0296 58.7634C70.9161 58.7634 70.8283 58.6771 70.8283 58.5594C70.8283 58.4418 70.9135 58.3633 71.0296 58.3633C71.1458 58.3633 71.2309 58.4496 71.2309 58.5594Z" fill="#3244FF"/>
<path d="M72.5754 59.3492C72.5754 59.4643 72.4825 59.5532 72.3741 59.5532C72.2657 59.5532 72.1728 59.4669 72.1728 59.3492C72.1728 59.2315 72.2631 59.1452 72.3741 59.1452C72.4851 59.1452 72.5754 59.2368 72.5754 59.3492Z" fill="#3244FF"/>
<path d="M73.5328 60.6071C73.644 60.6071 73.7341 60.5157 73.7341 60.4031C73.7341 60.2904 73.644 60.1991 73.5328 60.1991C73.4216 60.1991 73.3315 60.2904 73.3315 60.4031C73.3315 60.5157 73.4216 60.6071 73.5328 60.6071Z" fill="#3244FF"/>
<path d="M74.6477 61.6819C74.6477 61.7917 74.5573 61.8858 74.4464 61.8858C74.3354 61.8858 74.2451 61.7917 74.2451 61.6819C74.2451 61.572 74.338 61.4779 74.4464 61.4779C74.5547 61.4779 74.6477 61.572 74.6477 61.6819Z" fill="#3244FF"/>
<path d="M75.2773 63.1202C75.2773 63.2352 75.1921 63.3241 75.076 63.3241C74.9599 63.3241 74.8747 63.2378 74.8747 63.1202C74.8747 63.0025 74.9676 62.9162 75.076 62.9162C75.1896 62.9162 75.2773 63.0103 75.2773 63.1202Z" fill="#3244FF"/>
<path d="M75.605 64.6631C75.605 64.7729 75.5147 64.8671 75.4038 64.8671C75.2928 64.8671 75.2025 64.7755 75.2025 64.6631C75.2025 64.5506 75.2928 64.4591 75.4038 64.4591C75.5147 64.4591 75.605 64.5532 75.605 64.6631Z" fill="#3244FF"/>
<path d="M75.605 66.2426C75.605 66.3524 75.5147 66.4466 75.4038 66.4466C75.2928 66.4466 75.2025 66.3524 75.2025 66.2426C75.2025 66.1328 75.2928 66.0386 75.4038 66.0386C75.5147 66.0386 75.605 66.1301 75.605 66.2426Z" fill="#3244FF"/>
<path d="M82.0127 71.3551C82.0127 71.8781 81.5946 72.3018 81.0785 72.3018C80.5624 72.3018 80.1443 71.8781 80.1443 71.3551C80.1443 70.8321 80.5624 70.4084 81.0785 70.4084C81.5946 70.4084 82.0127 70.8321 82.0127 71.3551Z" fill="#3244FF"/>
<path d="M80.5133 73.978C80.5133 74.5011 80.0953 74.9247 79.5869 74.9247C79.0785 74.9247 78.6527 74.5011 78.6527 73.978C78.6527 73.455 79.0708 73.0392 79.5869 73.0392C80.103 73.0392 80.5133 73.4629 80.5133 73.978Z" fill="#3244FF"/>
<path d="M78.5134 76.2349C78.5134 76.7579 78.0953 77.1815 77.5792 77.1815C77.0631 77.1815 76.645 76.7579 76.645 76.2349C76.645 75.7118 77.0631 75.2882 77.5792 75.2882C78.0953 75.2882 78.5134 75.7118 78.5134 76.2349Z" fill="#3244FF"/>
<path d="M76.0928 78.0158C76.0928 78.5388 75.6747 78.9624 75.1586 78.9624C74.6425 78.9624 74.2244 78.5388 74.2244 78.0158C74.2244 77.4927 74.6425 77.0691 75.1586 77.0691C75.6747 77.0691 76.0928 77.4927 76.0928 78.0158Z" fill="#3244FF"/>
<path d="M73.3548 79.2527C73.3548 79.7757 72.9367 80.1915 72.4283 80.1915C71.9199 80.1915 71.4941 79.7731 71.4941 79.2527C71.4941 78.7323 71.9122 78.306 72.4283 78.306C72.9444 78.306 73.3548 78.7297 73.3548 79.2527Z" fill="#3244FF"/>
<path d="M70.4284 79.8803C70.4284 80.4033 70.0103 80.827 69.4942 80.827C68.9781 80.827 68.5677 80.4033 68.5677 79.8803C68.5677 79.3573 68.9806 78.9415 69.4942 78.9415C70.0077 78.9415 70.4284 79.3599 70.4284 79.8803Z" fill="#3244FF"/>
<path d="M67.4323 79.8803C67.4323 80.4033 67.0194 80.827 66.5058 80.827C65.9923 80.827 65.5717 80.4033 65.5717 79.8803C65.5717 79.3573 65.9897 78.9415 66.5058 78.9415C67.0219 78.9415 67.4323 79.3599 67.4323 79.8803Z" fill="#3244FF"/>
<path d="M64.5059 79.2527C64.5059 79.7757 64.0878 80.1915 63.5717 80.1915C63.0556 80.1915 62.6452 79.7731 62.6452 79.2527C62.6452 78.7323 63.0633 78.306 63.5717 78.306C64.0801 78.306 64.5059 78.7297 64.5059 79.2527Z" fill="#3244FF"/>
<path d="M61.7756 78.0158C61.7756 78.5388 61.3575 78.9624 60.8414 78.9624C60.3253 78.9624 59.9072 78.5388 59.9072 78.0158C59.9072 77.4927 60.3253 77.0691 60.8414 77.0691C61.3575 77.0691 61.7756 77.4927 61.7756 78.0158Z" fill="#3244FF"/>
<path d="M58.4182 77.1815C58.9342 77.1815 59.3524 76.7577 59.3524 76.2349C59.3524 75.712 58.9342 75.2882 58.4182 75.2882C57.9023 75.2882 57.4841 75.712 57.4841 76.2349C57.4841 76.7577 57.9023 77.1815 58.4182 77.1815Z" fill="#3244FF"/>
<path d="M57.3473 73.978C57.3473 74.5011 56.9292 74.9247 56.4131 74.9247C55.897 74.9247 55.4867 74.5011 55.4867 73.978C55.4867 73.455 55.9047 73.0392 56.4131 73.0392C56.9215 73.0392 57.3473 73.4629 57.3473 73.978Z" fill="#3244FF"/>
<path d="M55.8531 71.3551C55.8531 71.8781 55.4351 72.3018 54.9189 72.3018C54.4028 72.3018 53.9848 71.8781 53.9848 71.3551C53.9848 70.8321 54.4028 70.4084 54.9189 70.4084C55.4351 70.4084 55.8531 70.8321 55.8531 71.3551Z" fill="#3244FF"/>
<path d="M54.9267 68.4707C54.9267 68.9937 54.5138 69.4173 54.0002 69.4173C53.4867 69.4173 53.0661 68.9937 53.0661 68.4707C53.0661 67.9476 53.4841 67.524 54.0002 67.524C54.5164 67.524 54.9267 67.9476 54.9267 68.4707Z" fill="#3244FF"/>
<path d="M54.617 65.4528C54.617 65.9759 54.1989 66.3995 53.6828 66.3995C53.1667 66.3995 52.7486 65.9759 52.7486 65.4528C52.7486 64.9298 53.1667 64.5062 53.6828 64.5062C54.1989 64.5062 54.617 64.9298 54.617 65.4528Z" fill="#3244FF"/>
<path d="M54.9267 62.435C54.9267 62.958 54.5138 63.3817 54.0002 63.3817C53.4867 63.3817 53.0661 62.958 53.0661 62.435C53.0661 61.912 53.4841 61.4883 54.0002 61.4883C54.5164 61.4883 54.9267 61.912 54.9267 62.435Z" fill="#3244FF"/>
<path d="M55.8531 59.5506C55.8531 60.0736 55.4351 60.4972 54.9189 60.4972C54.4028 60.4972 53.9848 60.0736 53.9848 59.5506C53.9848 59.0275 54.4028 58.6039 54.9189 58.6039C55.4351 58.6039 55.8531 59.0275 55.8531 59.5506Z" fill="#3244FF"/>
<path d="M57.3473 56.9276C57.3473 57.4454 56.9292 57.8664 56.4131 57.8664C55.897 57.8664 55.4867 57.4428 55.4867 56.9276C55.4867 56.4125 55.9047 55.981 56.4131 55.981C56.9215 55.981 57.3473 56.4046 57.3473 56.9276Z" fill="#3244FF"/>
<path d="M58.4182 55.6175C58.9342 55.6175 59.3524 55.1936 59.3524 54.6708C59.3524 54.148 58.9342 53.7241 58.4182 53.7241C57.9023 53.7241 57.4841 54.148 57.4841 54.6708C57.4841 55.1936 57.9023 55.6175 58.4182 55.6175Z" fill="#3244FF"/>
<path d="M61.7756 52.8899C61.7756 53.4129 61.3575 53.8366 60.8414 53.8366C60.3253 53.8366 59.9072 53.4129 59.9072 52.8899C59.9072 52.3669 60.3253 51.9433 60.8414 51.9433C61.3575 51.9433 61.7756 52.3669 61.7756 52.8899Z" fill="#3244FF"/>
<path d="M64.5059 51.653C64.5059 52.176 64.0878 52.5996 63.5717 52.5996C63.0556 52.5996 62.6452 52.176 62.6452 51.653C62.6452 51.13 63.0633 50.7142 63.5717 50.7142C64.0801 50.7142 64.5059 51.1326 64.5059 51.653Z" fill="#3244FF"/>
<path d="M67.4323 51.0254C67.4323 51.5484 67.0194 51.9642 66.5058 51.9642C65.9923 51.9642 65.5717 51.5458 65.5717 51.0254C65.5717 50.5049 65.9897 50.0787 66.5058 50.0787C67.0219 50.0787 67.4323 50.5023 67.4323 51.0254Z" fill="#3244FF"/>
<path d="M70.4284 51.0254C70.4284 51.5484 70.0103 51.9642 69.4942 51.9642C68.9781 51.9642 68.5677 51.5458 68.5677 51.0254C68.5677 50.5049 68.9806 50.0787 69.4942 50.0787C70.0077 50.0787 70.4284 50.5023 70.4284 51.0254Z" fill="#3244FF"/>
<path d="M73.3548 51.653C73.3548 52.176 72.9367 52.5996 72.4283 52.5996C71.9199 52.5996 71.4941 52.176 71.4941 51.653C71.4941 51.13 71.9122 50.7142 72.4283 50.7142C72.9444 50.7142 73.3548 51.1326 73.3548 51.653Z" fill="#3244FF"/>
<path d="M76.0928 52.8899C76.0928 53.4129 75.6747 53.8366 75.1586 53.8366C74.6425 53.8366 74.2244 53.4129 74.2244 52.8899C74.2244 52.3669 74.6425 51.9433 75.1586 51.9433C75.6747 51.9433 76.0928 52.3669 76.0928 52.8899Z" fill="#3244FF"/>
<path d="M78.5134 54.6708C78.5134 55.1938 78.0953 55.6175 77.5792 55.6175C77.0631 55.6175 76.645 55.1938 76.645 54.6708C76.645 54.1478 77.0631 53.7241 77.5792 53.7241C78.0953 53.7241 78.5134 54.1478 78.5134 54.6708Z" fill="#3244FF"/>
<path d="M80.5133 56.9276C80.5133 57.4454 80.0953 57.8664 79.5869 57.8664C79.0785 57.8664 78.6527 57.4428 78.6527 56.9276C78.6527 56.4125 79.0708 55.981 79.5869 55.981C80.103 55.981 80.5133 56.4046 80.5133 56.9276Z" fill="#3244FF"/>
<path d="M82.0127 59.5506C82.0127 60.0736 81.5946 60.4972 81.0785 60.4972C80.5624 60.4972 80.1443 60.0736 80.1443 59.5506C80.1443 59.0275 80.5624 58.6039 81.0785 58.6039C81.5946 58.6039 82.0127 59.0275 82.0127 59.5506Z" fill="#3244FF"/>
<path d="M82.9339 62.435C82.9339 62.958 82.5159 63.3817 81.9998 63.3817C81.4837 63.3817 81.0733 62.958 81.0733 62.435C81.0733 61.912 81.4862 61.4883 81.9998 61.4883C82.5133 61.4883 82.9339 61.912 82.9339 62.435Z" fill="#3244FF"/>
<path d="M83.2488 65.4528C83.2488 65.9759 82.8307 66.3995 82.3146 66.3995C81.7985 66.3995 81.3804 65.9759 81.3804 65.4528C81.3804 64.9298 81.7985 64.5062 82.3146 64.5062C82.8307 64.5062 83.2488 64.9298 83.2488 65.4528Z" fill="#3244FF"/>
<path d="M82.9339 68.4707C82.9339 68.9937 82.5159 69.4173 81.9998 69.4173C81.4837 69.4173 81.0733 68.9937 81.0733 68.4707C81.0733 67.9476 81.4862 67.524 81.9998 67.524C82.5133 67.524 82.9339 67.9476 82.9339 68.4707Z" fill="#3244FF"/>
<path d="M87.9506 76.1878C87.9506 77.0822 87.2358 77.8118 86.3481 77.8118C85.4604 77.8118 84.7507 77.0795 84.7507 76.1878C84.7507 75.2961 85.4655 74.5638 86.3481 74.5638C87.2307 74.5638 87.9506 75.2961 87.9506 76.1878Z" fill="#3244FF"/>
<path d="M85.3468 79.8202C85.3468 80.7145 84.632 81.4389 83.7494 81.4389C82.8669 81.4389 82.1469 80.7145 82.1469 79.8202C82.1469 78.9258 82.8617 78.1962 83.7494 78.1962C84.6371 78.1962 85.3468 78.9206 85.3468 79.8202Z" fill="#3244FF"/>
<path d="M82.054 82.8223C82.054 83.7219 81.3391 84.4463 80.4566 84.4463C79.574 84.4463 78.854 83.7219 78.854 82.8223C78.854 81.9227 79.5688 81.2036 80.4566 81.2036C81.3443 81.2036 82.054 81.9279 82.054 82.8223Z" fill="#3244FF"/>
<path d="M78.2218 85.0687C78.2218 85.9682 77.4992 86.6926 76.6192 86.6926C75.7392 86.6926 75.0167 85.9682 75.0167 85.0687C75.0167 84.1691 75.7392 83.4499 76.6192 83.4499C77.4992 83.4499 78.2218 84.1743 78.2218 85.0687Z" fill="#3244FF"/>
<path d="M74.0077 86.4547C74.0077 87.3542 73.2928 88.0786 72.4051 88.0786C71.5174 88.0786 70.8077 87.3542 70.8077 86.4547C70.8077 85.5551 71.5225 84.8359 72.4051 84.8359C73.2877 84.8359 74.0077 85.5603 74.0077 86.4547Z" fill="#3244FF"/>
<path d="M69.6026 86.9254C69.6026 87.8197 68.88 88.5493 68 88.5493C67.12 88.5493 66.3975 87.8171 66.3975 86.9254C66.3975 86.0336 67.12 85.3014 68 85.3014C68.88 85.3014 69.6026 86.0336 69.6026 86.9254Z" fill="#3244FF"/>
<path d="M65.1949 86.4547C65.1949 87.3542 64.4801 88.0786 63.5975 88.0786C62.7149 88.0786 61.9949 87.3542 61.9949 86.4547C61.9949 85.5551 62.7098 84.8359 63.5975 84.8359C64.4852 84.8359 65.1949 85.5603 65.1949 86.4547Z" fill="#3244FF"/>
<path d="M60.9859 85.0687C60.9859 85.9682 60.2634 86.6926 59.3834 86.6926C58.5034 86.6926 57.7808 85.9682 57.7808 85.0687C57.7808 84.1691 58.5034 83.4499 59.3834 83.4499C60.2634 83.4499 60.9859 84.1743 60.9859 85.0687Z" fill="#3244FF"/>
<path d="M57.1486 82.8223C57.1486 83.7219 56.4337 84.4463 55.546 84.4463C54.6583 84.4463 53.9486 83.7219 53.9486 82.8223C53.9486 81.9227 54.6635 81.2036 55.546 81.2036C56.4286 81.2036 57.1486 81.9279 57.1486 82.8223Z" fill="#3244FF"/>
<path d="M53.8557 79.8202C53.8557 80.7145 53.1409 81.4389 52.2532 81.4389C51.3654 81.4389 50.6558 80.7145 50.6558 79.8202C50.6558 78.9258 51.3706 78.1962 52.2532 78.1962C53.1357 78.1962 53.8557 78.9206 53.8557 79.8202Z" fill="#3244FF"/>
<path d="M51.2493 76.1878C51.2493 77.0822 50.5345 77.8118 49.6519 77.8118C48.7694 77.8118 48.0494 77.0795 48.0494 76.1878C48.0494 75.2961 48.7642 74.5638 49.6519 74.5638C50.5396 74.5638 51.2493 75.2961 51.2493 76.1878Z" fill="#3244FF"/>
<path d="M49.4506 72.0847C49.4506 72.9843 48.7358 73.7087 47.8481 73.7087C46.9604 73.7087 46.2455 72.9843 46.2455 72.0847C46.2455 71.1851 46.9681 70.466 47.8481 70.466C48.7281 70.466 49.4506 71.1903 49.4506 72.0847Z" fill="#3244FF"/>
<path d="M48.5294 67.6992C48.5294 68.5936 47.8145 69.3179 46.9268 69.3179C46.0391 69.3179 45.3294 68.5936 45.3294 67.6992C45.3294 66.8048 46.0443 66.0752 46.9268 66.0752C47.8094 66.0752 48.5294 66.7996 48.5294 67.6992Z" fill="#3244FF"/>
<path d="M48.5294 63.2065C48.5294 64.1061 47.8145 64.8304 46.9268 64.8304C46.0391 64.8304 45.3294 64.1061 45.3294 63.2065C45.3294 62.3069 46.0443 61.5877 46.9268 61.5877C47.8094 61.5877 48.5294 62.3121 48.5294 63.2065Z" fill="#3244FF"/>
<path d="M49.4506 58.821C49.4506 59.7153 48.7358 60.4397 47.8481 60.4397C46.9604 60.4397 46.2455 59.7153 46.2455 58.821C46.2455 57.9266 46.9681 57.197 47.8481 57.197C48.7281 57.197 49.4506 57.9214 49.4506 58.821Z" fill="#3244FF"/>
<path d="M51.2493 54.7179C51.2493 55.6122 50.5345 56.3418 49.6519 56.3418C48.7694 56.3418 48.0494 55.6096 48.0494 54.7179C48.0494 53.8261 48.7642 53.0939 49.6519 53.0939C50.5396 53.0939 51.2493 53.8261 51.2493 54.7179Z" fill="#3244FF"/>
<path d="M53.8557 51.0855C53.8557 51.9851 53.1409 52.7095 52.2532 52.7095C51.3654 52.7095 50.6558 51.9851 50.6558 51.0855C50.6558 50.1859 51.3706 49.4668 52.2532 49.4668C53.1357 49.4668 53.8557 50.1911 53.8557 51.0855Z" fill="#3244FF"/>
<path d="M57.1486 48.0834C57.1486 48.9777 56.4337 49.7021 55.546 49.7021C54.6583 49.7021 53.9486 48.9777 53.9486 48.0834C53.9486 47.189 54.6635 46.4594 55.546 46.4594C56.4286 46.4594 57.1486 47.1838 57.1486 48.0834Z" fill="#3244FF"/>
<path d="M60.9859 45.837C60.9859 46.7314 60.2634 47.4557 59.3834 47.4557C58.5034 47.4557 57.7808 46.7314 57.7808 45.837C57.7808 44.9426 58.5034 44.213 59.3834 44.213C60.2634 44.213 60.9859 44.9374 60.9859 45.837Z" fill="#3244FF"/>
<path d="M65.1949 44.451C65.1949 45.3454 64.4801 46.0698 63.5975 46.0698C62.7149 46.0698 61.9949 45.3454 61.9949 44.451C61.9949 43.5566 62.7098 42.827 63.5975 42.827C64.4852 42.827 65.1949 43.5514 65.1949 44.451Z" fill="#3244FF"/>
<path d="M69.6026 43.9803C69.6026 44.8747 68.88 45.6043 68 45.6043C67.12 45.6043 66.3975 44.8721 66.3975 43.9803C66.3975 43.0886 67.12 42.3563 68 42.3563C68.88 42.3563 69.6026 43.0886 69.6026 43.9803Z" fill="#3244FF"/>
<path d="M74.0077 44.451C74.0077 45.3454 73.2928 46.0698 72.4051 46.0698C71.5174 46.0698 70.8077 45.3454 70.8077 44.451C70.8077 43.5566 71.5225 42.827 72.4051 42.827C73.2877 42.827 74.0077 43.5514 74.0077 44.451Z" fill="#3244FF"/>
<path d="M78.2218 45.837C78.2218 46.7314 77.4992 47.4557 76.6192 47.4557C75.7392 47.4557 75.0167 46.7314 75.0167 45.837C75.0167 44.9426 75.7392 44.213 76.6192 44.213C77.4992 44.213 78.2218 44.9374 78.2218 45.837Z" fill="#3244FF"/>
<path d="M82.054 48.0834C82.054 48.9777 81.3391 49.7021 80.4566 49.7021C79.574 49.7021 78.854 48.9777 78.854 48.0834C78.854 47.189 79.5688 46.4594 80.4566 46.4594C81.3443 46.4594 82.054 47.1838 82.054 48.0834Z" fill="#3244FF"/>
<path d="M85.3468 51.0855C85.3468 51.9851 84.632 52.7095 83.7494 52.7095C82.8669 52.7095 82.1469 51.9851 82.1469 51.0855C82.1469 50.1859 82.8617 49.4668 83.7494 49.4668C84.6371 49.4668 85.3468 50.1911 85.3468 51.0855Z" fill="#3244FF"/>
<path d="M87.9506 54.7179C87.9506 55.6122 87.2358 56.3418 86.3481 56.3418C85.4604 56.3418 84.7507 55.6096 84.7507 54.7179C84.7507 53.8261 85.4655 53.0939 86.3481 53.0939C87.2307 53.0939 87.9506 53.8261 87.9506 54.7179Z" fill="#3244FF"/>
<path d="M89.7545 58.821C89.7545 59.7153 89.0319 60.4397 88.1519 60.4397C87.2719 60.4397 86.5494 59.7153 86.5494 58.821C86.5494 57.9266 87.2642 57.197 88.1519 57.197C89.0396 57.197 89.7545 57.9214 89.7545 58.821Z" fill="#3244FF"/>
<path d="M90.6706 63.2065C90.6706 64.1061 89.9558 64.8304 89.0732 64.8304C88.1906 64.8304 87.4706 64.1061 87.4706 63.2065C87.4706 62.3069 88.1855 61.5877 89.0732 61.5877C89.9609 61.5877 90.6706 62.3121 90.6706 63.2065Z" fill="#3244FF"/>
<path d="M90.6706 67.6992C90.6706 68.5936 89.9558 69.3179 89.0732 69.3179C88.1906 69.3179 87.4706 68.5936 87.4706 67.6992C87.4706 66.8048 88.1855 66.0752 89.0732 66.0752C89.9609 66.0752 90.6706 66.7996 90.6706 67.6992Z" fill="#3244FF"/>
<path d="M89.7545 72.0847C89.7545 72.9843 89.0319 73.7087 88.1519 73.7087C87.2719 73.7087 86.5494 72.9843 86.5494 72.0847C86.5494 71.1851 87.2642 70.466 88.1519 70.466C89.0396 70.466 89.7545 71.1903 89.7545 72.0847Z" fill="#3244FF"/>
<path d="M92.8641 82.1659C92.8641 83.3793 91.8964 84.36 90.699 84.36C89.5016 84.36 88.539 83.3793 88.539 82.1659C88.539 80.9525 89.5067 79.9771 90.699 79.9771C91.8912 79.9771 92.8641 80.9577 92.8641 82.1659Z" fill="#3244FF"/>
<path d="M88.9364 86.5828C88.9364 87.7962 87.9687 88.7769 86.7765 88.7769C85.5842 88.7769 84.6113 87.7962 84.6113 86.5828C84.6113 85.3694 85.5791 84.394 86.7765 84.394C87.9739 84.394 88.9364 85.3746 88.9364 86.5828Z" fill="#3244FF"/>
<path d="M84.1881 90.0818C84.1881 91.2899 83.2204 92.2706 82.0282 92.2706C80.8359 92.2706 79.8682 91.2899 79.8682 90.0818C79.8682 88.8736 80.8359 87.8877 82.0282 87.8877C83.2204 87.8877 84.1881 88.8684 84.1881 90.0818Z" fill="#3244FF"/>
<path d="M78.836 92.4955C78.836 93.7089 77.8682 94.6896 76.6708 94.6896C75.4734 94.6896 74.5109 93.7089 74.5109 92.4955C74.5109 91.2821 75.4786 90.3067 76.6708 90.3067C77.8631 90.3067 78.836 91.2874 78.836 92.4955Z" fill="#3244FF"/>
<path d="M73.0967 93.7325C73.0967 94.9459 72.129 95.9265 70.9316 95.9265C69.7342 95.9265 68.7716 94.9459 68.7716 93.7325C68.7716 92.5191 69.7393 91.5436 70.9316 91.5436C72.1238 91.5436 73.0967 92.5243 73.0967 93.7325Z" fill="#3244FF"/>
<path d="M67.2258 93.7325C67.2258 94.9459 66.2581 95.9265 65.0659 95.9265C63.8736 95.9265 62.9007 94.9459 62.9007 93.7325C62.9007 92.5191 63.8685 91.5436 65.0659 91.5436C66.2633 91.5436 67.2258 92.5243 67.2258 93.7325Z" fill="#3244FF"/>
<path d="M61.4891 92.4955C61.4891 93.7089 60.5214 94.6896 59.3292 94.6896C58.1369 94.6896 57.1641 93.7089 57.1641 92.4955C57.1641 91.2821 58.1318 90.3067 59.3292 90.3067C60.5266 90.3067 61.4891 91.2874 61.4891 92.4955Z" fill="#3244FF"/>
<path d="M56.1292 90.0818C56.1292 91.2899 55.1615 92.2706 53.9693 92.2706C52.777 92.2706 51.8093 91.2899 51.8093 90.0818C51.8093 88.8736 52.777 87.8877 53.9693 87.8877C55.1615 87.8877 56.1292 88.8684 56.1292 90.0818Z" fill="#3244FF"/>
<path d="M51.3861 86.5828C51.3861 87.7962 50.4184 88.7769 49.221 88.7769C48.0236 88.7769 47.061 87.7962 47.061 86.5828C47.061 85.3694 48.0287 84.394 49.221 84.394C50.4132 84.394 51.3861 85.3746 51.3861 86.5828Z" fill="#3244FF"/>
<path d="M47.4584 82.1659C47.4584 83.3793 46.4907 84.36 45.2984 84.36C44.1062 84.36 43.1333 83.3793 43.1333 82.1659C43.1333 80.9525 44.101 79.9771 45.2984 79.9771C46.4958 79.9771 47.4584 80.9577 47.4584 82.1659Z" fill="#3244FF"/>
<path d="M44.5268 77.0194C44.5268 78.2276 43.5591 79.2082 42.3669 79.2082C41.1746 79.2082 40.2018 78.2276 40.2018 77.0194C40.2018 75.8112 41.1695 74.8306 42.3669 74.8306C43.5643 74.8306 44.5268 75.8112 44.5268 77.0194Z" fill="#3244FF"/>
<path d="M42.7101 71.3656C42.7101 72.5737 41.7424 73.5544 40.5501 73.5544C39.3579 73.5544 38.3902 72.5737 38.3902 71.3656C38.3902 70.1574 39.3579 69.1715 40.5501 69.1715C41.7424 69.1715 42.7101 70.1521 42.7101 71.3656Z" fill="#3244FF"/>
<path d="M40.7686 67.4769C41.8698 67.012 42.3905 65.7305 41.9317 64.6146C41.4729 63.4987 40.2083 62.9711 39.1071 63.436C38.006 63.901 37.4852 65.1825 37.9441 66.2983C38.4029 67.4142 39.6675 67.9419 40.7686 67.4769Z" fill="#3244FF"/>
<path d="M42.7101 59.5401C42.7101 60.7535 41.7424 61.7342 40.5501 61.7342C39.3579 61.7342 38.3902 60.7535 38.3902 59.5401C38.3902 58.3267 39.3579 57.3513 40.5501 57.3513C41.7424 57.3513 42.7101 58.3319 42.7101 59.5401Z" fill="#3244FF"/>
<path d="M44.5268 53.8863C44.5268 55.0944 43.5591 56.0751 42.3669 56.0751C41.1746 56.0751 40.2018 55.0944 40.2018 53.8863C40.2018 52.6781 41.1695 51.6974 42.3669 51.6974C43.5643 51.6974 44.5268 52.6781 44.5268 53.8863Z" fill="#3244FF"/>
<path d="M47.4584 48.7398C47.4584 49.9479 46.4907 50.9286 45.2984 50.9286C44.1062 50.9286 43.1333 49.9479 43.1333 48.7398C43.1333 47.5316 44.101 46.5457 45.2984 46.5457C46.4958 46.5457 47.4584 47.5264 47.4584 48.7398Z" fill="#3244FF"/>
<path d="M51.3861 44.3229C51.3861 45.531 50.4184 46.5117 49.221 46.5117C48.0236 46.5117 47.061 45.531 47.061 44.3229C47.061 43.1147 48.0287 42.1288 49.221 42.1288C50.4132 42.1288 51.3861 43.1095 51.3861 44.3229Z" fill="#3244FF"/>
<path d="M56.1292 40.8239C56.1292 42.0373 55.1615 43.0179 53.9693 43.0179C52.777 43.0179 51.8093 42.0373 51.8093 40.8239C51.8093 39.6105 52.777 38.635 53.9693 38.635C55.1615 38.635 56.1292 39.6157 56.1292 40.8239Z" fill="#3244FF"/>
<path d="M61.4891 38.4101C61.4891 39.6183 60.5214 40.599 59.3292 40.599C58.1369 40.599 57.1641 39.6183 57.1641 38.4101C57.1641 37.202 58.1318 36.2161 59.3292 36.2161C60.5266 36.2161 61.4891 37.1967 61.4891 38.4101Z" fill="#3244FF"/>
<path d="M67.2258 37.1732C67.2258 38.3814 66.2581 39.362 65.0659 39.362C63.8736 39.362 62.9007 38.3814 62.9007 37.1732C62.9007 35.965 63.8685 34.9791 65.0659 34.9791C66.2633 34.9791 67.2258 35.9598 67.2258 37.1732Z" fill="#3244FF"/>
<path d="M73.0967 37.1732C73.0967 38.3814 72.129 39.362 70.9316 39.362C69.7342 39.362 68.7716 38.3814 68.7716 37.1732C68.7716 35.965 69.7393 34.9791 70.9316 34.9791C72.1238 34.9791 73.0967 35.9598 73.0967 37.1732Z" fill="#3244FF"/>
<path d="M78.836 38.4101C78.836 39.6183 77.8682 40.599 76.6708 40.599C75.4734 40.599 74.5109 39.6183 74.5109 38.4101C74.5109 37.202 75.4786 36.2161 76.6708 36.2161C77.8631 36.2161 78.836 37.1967 78.836 38.4101Z" fill="#3244FF"/>
<path d="M84.1881 40.8239C84.1881 42.0373 83.2204 43.0179 82.0282 43.0179C80.8359 43.0179 79.8682 42.0373 79.8682 40.8239C79.8682 39.6105 80.8359 38.635 82.0282 38.635C83.2204 38.635 84.1881 39.6157 84.1881 40.8239Z" fill="#3244FF"/>
<path d="M88.9364 44.3229C88.9364 45.531 87.9687 46.5117 86.7765 46.5117C85.5842 46.5117 84.6113 45.531 84.6113 44.3229C84.6113 43.1147 85.5791 42.1288 86.7765 42.1288C87.9739 42.1288 88.9364 43.1095 88.9364 44.3229Z" fill="#3244FF"/>
<path d="M92.8641 48.7398C92.8641 49.9479 91.8964 50.9286 90.699 50.9286C89.5016 50.9286 88.539 49.9479 88.539 48.7398C88.539 47.5316 89.5067 46.5457 90.699 46.5457C91.8912 46.5457 92.8641 47.5264 92.8641 48.7398Z" fill="#3244FF"/>
<path d="M95.7982 53.8863C95.7982 55.0944 94.8305 56.0751 93.6331 56.0751C92.4357 56.0751 91.4732 55.0944 91.4732 53.8863C91.4732 52.6781 92.4409 51.6974 93.6331 51.6974C94.8254 51.6974 95.7982 52.6781 95.7982 53.8863Z" fill="#3244FF"/>
<path d="M97.6073 59.5401C97.6073 60.7535 96.6395 61.7342 95.4473 61.7342C94.2551 61.7342 93.2873 60.7535 93.2873 59.5401C93.2873 58.3267 94.2551 57.3513 95.4473 57.3513C96.6395 57.3513 97.6073 58.3319 97.6073 59.5401Z" fill="#3244FF"/>
<path d="M97.5886 66.9992C98.4321 66.1444 98.4321 64.7585 97.5886 63.9037C96.7451 63.0489 95.3775 63.0489 94.534 63.9037C93.6904 64.7585 93.6904 66.1444 94.534 66.9992C95.3775 67.854 96.7451 67.854 97.5886 66.9992Z" fill="#3244FF"/>
<path d="M97.6073 71.3656C97.6073 72.5737 96.6395 73.5544 95.4473 73.5544C94.2551 73.5544 93.2873 72.5737 93.2873 71.3656C93.2873 70.1574 94.2551 69.1715 95.4473 69.1715C96.6395 69.1715 97.6073 70.1521 97.6073 71.3656Z" fill="#3244FF"/>
<path d="M95.7982 77.0194C95.7982 78.2276 94.8305 79.2082 93.6331 79.2082C92.4357 79.2082 91.4732 78.2276 91.4732 77.0194C91.4732 75.8112 92.4409 74.8306 93.6331 74.8306C94.8254 74.8306 95.7982 75.8112 95.7982 77.0194Z" fill="#3244FF"/>
<path d="M96.5363 89.1404C96.5363 90.5787 95.3802 91.745 93.9583 91.745C92.5364 91.745 91.388 90.5787 91.388 89.1404C91.388 87.7021 92.539 86.5279 93.9583 86.5279C95.3776 86.5279 96.5363 87.6994 96.5363 89.1404Z" fill="#3244FF"/>
<path d="M91.1067 94.0907C91.1067 95.529 89.9558 96.6954 88.5287 96.6954C87.1016 96.6954 85.9584 95.529 85.9584 94.0907C85.9584 92.6524 87.1094 91.4861 88.5287 91.4861C89.948 91.4861 91.1067 92.6524 91.1067 94.0907Z" fill="#3244FF"/>
<path d="M84.7791 97.7937C84.7791 99.232 83.6281 100.398 82.2088 100.398C80.7895 100.398 79.6385 99.232 79.6385 97.7937C79.6385 96.3554 80.7895 95.1812 82.2088 95.1812C83.6281 95.1812 84.7791 96.3476 84.7791 97.7937Z" fill="#3244FF"/>
<path d="M77.8373 100.079C77.8373 101.518 76.6812 102.684 75.2592 102.684C73.8373 102.684 72.689 101.518 72.689 100.079C72.689 98.641 73.8399 97.4668 75.2592 97.4668C76.6786 97.4668 77.8373 98.6384 77.8373 100.079Z" fill="#3244FF"/>
<path d="M69.8155 102.692C70.8193 101.675 70.8193 100.026 69.8155 99.0088C68.8118 97.9917 67.1844 97.9917 66.1806 99.0088C65.1768 100.026 65.1768 101.675 66.1806 102.692C67.1844 103.71 68.8118 103.71 69.8155 102.692Z" fill="#3244FF"/>
<path d="M63.311 100.079C63.311 101.518 62.1601 102.684 60.7408 102.684C59.3214 102.684 58.1628 101.518 58.1628 100.079C58.1628 98.641 59.3189 97.4668 60.7408 97.4668C62.1627 97.4668 63.311 98.6384 63.311 100.079Z" fill="#3244FF"/>
<path d="M56.3641 97.7937C56.3641 99.232 55.2131 100.398 53.7938 100.398C52.3745 100.398 51.2235 99.232 51.2235 97.7937C51.2235 96.3554 52.3745 95.1812 53.7938 95.1812C55.2131 95.1812 56.3641 96.3476 56.3641 97.7937Z" fill="#3244FF"/>
<path d="M50.0416 94.0907C50.0416 95.529 48.8906 96.6954 47.4713 96.6954C46.052 96.6954 44.8933 95.529 44.8933 94.0907C44.8933 92.6524 46.0442 91.4861 47.4713 91.4861C48.8984 91.4861 50.0416 92.6524 50.0416 94.0907Z" fill="#3244FF"/>
<path d="M44.612 89.1404C44.612 90.5787 43.4611 91.745 42.0417 91.745C40.6224 91.745 39.4637 90.5787 39.4637 89.1404C39.4637 87.7021 40.6198 86.5279 42.0417 86.5279C43.4636 86.5279 44.612 87.6994 44.612 89.1404Z" fill="#3244FF"/>
<path d="M40.3231 83.1518C40.3231 84.5901 39.1669 85.7564 37.745 85.7564C36.3231 85.7564 35.1747 84.5901 35.1747 83.1518C35.1747 81.7135 36.3257 80.5472 37.745 80.5472C39.1644 80.5472 40.3231 81.7135 40.3231 83.1518Z" fill="#3244FF"/>
<path d="M37.3502 76.3918C37.3502 77.8301 36.1992 78.9964 34.7799 78.9964C33.3606 78.9964 32.2019 77.8301 32.2019 76.3918C32.2019 74.9535 33.3528 73.7871 34.7799 73.7871C36.207 73.7871 37.3502 74.9535 37.3502 76.3918Z" fill="#3244FF"/>
<path d="M35.8328 69.1558C35.8328 70.5941 34.6819 71.7604 33.2548 71.7604C31.8277 71.7604 30.6845 70.5941 30.6845 69.1558C30.6845 67.7175 31.8355 66.5433 33.2548 66.5433C34.6741 66.5433 35.8328 67.7097 35.8328 69.1558Z" fill="#3244FF"/>
<path d="M35.8328 61.7499C35.8328 63.196 34.6819 64.3623 33.2548 64.3623C31.8277 64.3623 30.6845 63.196 30.6845 61.7499C30.6845 60.3037 31.8355 59.1452 33.2548 59.1452C34.6741 59.1452 35.8328 60.3116 35.8328 61.7499Z" fill="#3244FF"/>
<path d="M37.3502 54.5139C37.3502 55.9522 36.1992 57.1185 34.7799 57.1185C33.3606 57.1185 32.2019 55.9522 32.2019 54.5139C32.2019 53.0756 33.3528 51.9093 34.7799 51.9093C36.207 51.9093 37.3502 53.0756 37.3502 54.5139Z" fill="#3244FF"/>
<path d="M40.3231 47.7539C40.3231 49.1922 39.1669 50.3585 37.745 50.3585C36.3231 50.3585 35.1747 49.1922 35.1747 47.7539C35.1747 46.3156 36.3257 45.1492 37.745 45.1492C39.1644 45.1492 40.3231 46.3156 40.3231 47.7539Z" fill="#3244FF"/>
<path d="M44.612 41.7653C44.612 43.2115 43.4611 44.3778 42.0417 44.3778C40.6224 44.3778 39.4637 43.2115 39.4637 41.7653C39.4637 40.3192 40.6198 39.1607 42.0417 39.1607C43.4636 39.1607 44.612 40.327 44.612 41.7653Z" fill="#3244FF"/>
<path d="M50.0416 36.8149C50.0416 38.2532 48.8906 39.4196 47.4713 39.4196C46.052 39.4196 44.8933 38.2532 44.8933 36.8149C44.8933 35.3766 46.0442 34.2103 47.4713 34.2103C48.8984 34.2103 50.0416 35.3766 50.0416 36.8149Z" fill="#3244FF"/>
<path d="M56.3641 33.112C56.3641 34.5581 55.2131 35.7244 53.7938 35.7244C52.3745 35.7244 51.2235 34.5581 51.2235 33.112C51.2235 31.6658 52.3745 30.5073 53.7938 30.5073C55.2131 30.5073 56.3641 31.6737 56.3641 33.112Z" fill="#3244FF"/>
<path d="M63.311 30.8264C63.311 32.2647 62.1601 33.4389 60.7408 33.4389C59.3214 33.4389 58.1628 32.2673 58.1628 30.8264C58.1628 29.3855 59.3189 28.2217 60.7408 28.2217C62.1627 28.2217 63.311 29.3881 63.311 30.8264Z" fill="#3244FF"/>
<path d="M70.5067 30.6553C70.8316 29.255 69.9747 27.853 68.5929 27.5237C67.211 27.1945 65.8275 28.0628 65.5026 29.4631C65.1777 30.8635 66.0346 32.2655 67.4164 32.5947C68.7983 32.924 70.1818 32.0557 70.5067 30.6553Z" fill="#3244FF"/>
<path d="M77.8373 30.8264C77.8373 32.2647 76.6812 33.4389 75.2592 33.4389C73.8373 33.4389 72.689 32.2673 72.689 30.8264C72.689 29.3855 73.8399 28.2217 75.2592 28.2217C76.6786 28.2217 77.8373 29.3881 77.8373 30.8264Z" fill="#3244FF"/>
<path d="M84.7791 33.112C84.7791 34.5581 83.6281 35.7244 82.2088 35.7244C80.7895 35.7244 79.6385 34.5581 79.6385 33.112C79.6385 31.6658 80.7895 30.5073 82.2088 30.5073C83.6281 30.5073 84.7791 31.6737 84.7791 33.112Z" fill="#3244FF"/>
<path d="M91.1067 36.8149C91.1067 38.2532 89.9558 39.4196 88.5287 39.4196C87.1016 39.4196 85.9584 38.2532 85.9584 36.8149C85.9584 35.3766 87.1094 34.2103 88.5287 34.2103C89.948 34.2103 91.1067 35.3766 91.1067 36.8149Z" fill="#3244FF"/>
<path d="M96.5363 41.7653C96.5363 43.2115 95.3802 44.3778 93.9583 44.3778C92.5364 44.3778 91.388 43.2115 91.388 41.7653C91.388 40.3192 92.539 39.1607 93.9583 39.1607C95.3776 39.1607 96.5363 40.327 96.5363 41.7653Z" fill="#3244FF"/>
<path d="M100.825 47.7539C100.825 49.1922 99.6743 50.3585 98.255 50.3585C96.8357 50.3585 95.677 49.1922 95.677 47.7539C95.677 46.3156 96.8331 45.1492 98.255 45.1492C99.6769 45.1492 100.825 46.3156 100.825 47.7539Z" fill="#3244FF"/>
<path d="M103.798 54.5139C103.798 55.9522 102.647 57.1185 101.22 57.1185C99.793 57.1185 98.6498 55.9522 98.6498 54.5139C98.6498 53.0756 99.8008 51.9093 101.22 51.9093C102.639 51.9093 103.798 53.0756 103.798 54.5139Z" fill="#3244FF"/>
<path d="M105.316 61.7499C105.316 63.196 104.165 64.3623 102.745 64.3623C101.326 64.3623 100.167 63.196 100.167 61.7499C100.167 60.3037 101.318 59.1452 102.745 59.1452C104.172 59.1452 105.316 60.3116 105.316 61.7499Z" fill="#3244FF"/>
<path d="M105.316 69.1558C105.316 70.5941 104.165 71.7604 102.745 71.7604C101.326 71.7604 100.167 70.5941 100.167 69.1558C100.167 67.7175 101.318 66.5433 102.745 66.5433C104.172 66.5433 105.316 67.7097 105.316 69.1558Z" fill="#3244FF"/>
<path d="M103.798 76.3918C103.798 77.8301 102.647 78.9964 101.22 78.9964C99.793 78.9964 98.6498 77.8301 98.6498 76.3918C98.6498 74.9535 99.8008 73.7871 101.22 73.7871C102.639 73.7871 103.798 74.9535 103.798 76.3918Z" fill="#3244FF"/>
<path d="M100.825 83.1518C100.825 84.5901 99.6743 85.7564 98.255 85.7564C96.8357 85.7564 95.677 84.5901 95.677 83.1518C95.677 81.7135 96.8331 80.5472 98.255 80.5472C99.6769 80.5472 100.825 81.7135 100.825 83.1518Z" fill="#3244FF"/>
<path d="M98.7814 96.936C98.7814 98.5076 97.5273 99.7864 95.9763 99.7864C94.4254 99.7864 93.1635 98.5102 93.1635 96.936C93.1635 95.3617 94.4228 94.0855 95.9763 94.0855C97.5298 94.0855 98.7814 95.3617 98.7814 96.936Z" fill="#3244FF"/>
<path d="M91.687 102.571C91.9201 101.014 90.864 99.5612 89.3281 99.325C87.7922 99.0888 86.3581 100.159 86.125 101.715C85.8919 103.272 86.948 104.725 88.4839 104.961C90.0198 105.198 91.4539 104.127 91.687 102.571Z" fill="#3244FF"/>
<path d="M83.688 106.256C83.9644 104.707 82.9493 103.224 81.4206 102.944C79.8919 102.664 78.4285 103.692 78.1521 105.242C77.8756 106.791 78.8908 108.274 80.4195 108.554C81.9482 108.834 83.4116 107.805 83.688 106.256Z" fill="#3244FF"/>
<path d="M72.369 110.435C73.9225 110.435 75.1818 109.159 75.1818 107.585C75.1818 106.01 73.9225 104.734 72.369 104.734C70.8155 104.734 69.5561 106.01 69.5561 107.585C69.5561 109.159 70.8155 110.435 72.369 110.435Z" fill="#3244FF"/>
<path d="M63.6311 110.435C65.1845 110.435 66.4439 109.159 66.4439 107.585C66.4439 106.01 65.1845 104.734 63.6311 104.734C62.0776 104.734 60.8182 106.01 60.8182 107.585C60.8182 109.159 62.0776 110.435 63.6311 110.435Z" fill="#3244FF"/>
<path d="M57.8201 106.411C58.1788 104.879 57.2443 103.343 55.7328 102.979C54.2212 102.616 52.7051 103.563 52.3464 105.094C51.9877 106.626 52.9223 108.163 54.4338 108.526C55.9453 108.89 57.4614 107.942 57.8201 106.411Z" fill="#3244FF"/>
<path d="M49.8685 102.63C50.1359 101.079 49.112 99.6024 47.5817 99.3315C46.0514 99.0606 44.5941 100.098 44.3267 101.649C44.0594 103.2 45.0832 104.676 46.6135 104.947C48.1438 105.218 49.6011 104.181 49.8685 102.63Z" fill="#3244FF"/>
<path d="M42.8366 96.936C42.8366 98.5076 41.5772 99.7864 40.0237 99.7864C38.4702 99.7864 37.2186 98.5102 37.2186 96.936C37.2186 95.3617 38.4728 94.0855 40.0237 94.0855C41.5746 94.0855 42.8366 95.3617 42.8366 96.936Z" fill="#3244FF"/>
<path d="M34.1786 93.2042C35.7321 93.2042 36.9915 91.928 36.9915 90.3538C36.9915 88.7795 35.7321 87.5033 34.1786 87.5033C32.6251 87.5033 31.3658 88.7795 31.3658 90.3538C31.3658 91.928 32.6251 93.2042 34.1786 93.2042Z" fill="#3244FF"/>
<path d="M29.8097 85.5341C31.3632 85.5341 32.6225 84.258 32.6225 82.6837C32.6225 81.1094 31.3632 79.8332 29.8097 79.8332C28.2562 79.8332 26.9968 81.1094 26.9968 82.6837C26.9968 84.258 28.2562 85.5341 29.8097 85.5341Z" fill="#3244FF"/>
<path d="M29.9181 74.2631C29.9181 75.8348 28.6639 77.1135 27.1129 77.1135C25.562 77.1135 24.3001 75.8374 24.3001 74.2631C24.3001 72.6888 25.5543 71.4126 27.1129 71.4126C28.6716 71.4126 29.9181 72.6888 29.9181 74.2631Z" fill="#3244FF"/>
<path d="M27.2832 68.0823C28.7167 67.4758 29.3937 65.8064 28.7952 64.3537C28.1967 62.901 26.5494 62.215 25.1158 62.8215C23.6822 63.428 23.0052 65.0973 23.6037 66.55C24.2023 68.0028 25.8496 68.6888 27.2832 68.0823Z" fill="#3244FF"/>
<path d="M29.9181 56.6426C29.9181 58.2142 28.6639 59.493 27.1129 59.493C25.562 59.493 24.3001 58.2169 24.3001 56.6426C24.3001 55.0683 25.5543 53.7921 27.1129 53.7921C28.6716 53.7921 29.9181 55.0683 29.9181 56.6426Z" fill="#3244FF"/>
<path d="M29.8097 51.0724C31.3632 51.0724 32.6225 49.7962 32.6225 48.222C32.6225 46.6477 31.3632 45.3715 29.8097 45.3715C28.2562 45.3715 26.9968 46.6477 26.9968 48.222C26.9968 49.7962 28.2562 51.0724 29.8097 51.0724Z" fill="#3244FF"/>
<path d="M34.1786 43.4024C35.7321 43.4024 36.9915 42.1262 36.9915 40.5519C36.9915 38.9776 35.7321 37.7014 34.1786 37.7014C32.6251 37.7014 31.3658 38.9776 31.3658 40.5519C31.3658 42.1262 32.6251 43.4024 34.1786 43.4024Z" fill="#3244FF"/>
<path d="M42.8366 33.9697C42.8366 35.5414 41.5772 36.8202 40.0237 36.8202C38.4702 36.8202 37.2186 35.544 37.2186 33.9697C37.2186 32.3954 38.4728 31.1193 40.0237 31.1193C41.5746 31.1193 42.8366 32.3954 42.8366 33.9697Z" fill="#3244FF"/>
<path d="M47.0971 31.6161C48.6506 31.6161 49.91 30.3399 49.91 28.7657C49.91 27.1914 48.6506 25.9152 47.0971 25.9152C45.5436 25.9152 44.2843 27.1914 44.2843 28.7657C44.2843 30.3399 45.5436 31.6161 47.0971 31.6161Z" fill="#3244FF"/>
<path d="M57.0697 27.1775C58.1682 26.0643 58.1682 24.2595 57.0697 23.1463C55.9712 22.0332 54.1902 22.0332 53.0917 23.1463C51.9932 24.2595 51.9932 26.0643 53.0917 27.1775C54.1902 28.2906 55.9712 28.2906 57.0697 27.1775Z" fill="#3244FF"/>
<path d="M63.6311 26.1715C65.1845 26.1715 66.4439 24.8953 66.4439 23.321C66.4439 21.7468 65.1845 20.4706 63.6311 20.4706C62.0776 20.4706 60.8182 21.7468 60.8182 23.321C60.8182 24.8953 62.0776 26.1715 63.6311 26.1715Z" fill="#3244FF"/>
<path d="M72.369 26.1715C73.9225 26.1715 75.1818 24.8953 75.1818 23.321C75.1818 21.7468 73.9225 20.4706 72.369 20.4706C70.8155 20.4706 69.5561 21.7468 69.5561 23.321C69.5561 24.8953 70.8155 26.1715 72.369 26.1715Z" fill="#3244FF"/>
<path d="M82.2387 27.6769C83.6105 26.9381 84.1315 25.2122 83.4024 23.8221C82.6733 22.432 80.9702 21.904 79.5985 22.6428C78.2267 23.3817 77.7057 25.1075 78.4348 26.4976C79.1638 27.8877 80.8669 28.4157 82.2387 27.6769Z" fill="#3244FF"/>
<path d="M88.9029 31.6161C90.4564 31.6161 91.7157 30.3399 91.7157 28.7657C91.7157 27.1914 90.4564 25.9152 88.9029 25.9152C87.3494 25.9152 86.09 27.1914 86.09 28.7657C86.09 30.3399 87.3494 31.6161 88.9029 31.6161Z" fill="#3244FF"/>
<path d="M98.7814 33.9697C98.7814 35.5414 97.5273 36.8202 95.9763 36.8202C94.4254 36.8202 93.1635 35.544 93.1635 33.9697C93.1635 32.3954 94.4228 31.1193 95.9763 31.1193C97.5298 31.1193 98.7814 32.3954 98.7814 33.9697Z" fill="#3244FF"/>
<path d="M101.821 43.4024C103.375 43.4024 104.634 42.1262 104.634 40.5519C104.634 38.9776 103.375 37.7014 101.821 37.7014C100.268 37.7014 99.0085 38.9776 99.0085 40.5519C99.0085 42.1262 100.268 43.4024 101.821 43.4024Z" fill="#3244FF"/>
<path d="M106.19 51.0724C107.744 51.0724 109.003 49.7962 109.003 48.222C109.003 46.6477 107.744 45.3715 106.19 45.3715C104.637 45.3715 103.377 46.6477 103.377 48.222C103.377 49.7962 104.637 51.0724 106.19 51.0724Z" fill="#3244FF"/>
<path d="M111.7 56.6426C111.7 58.2142 110.446 59.493 108.887 59.493C107.328 59.493 106.082 58.2169 106.082 56.6426C106.082 55.0683 107.336 53.7921 108.887 53.7921C110.438 53.7921 111.7 55.0683 111.7 56.6426Z" fill="#3244FF"/>
<path d="M110.887 68.0804C112.321 67.4739 112.998 65.8046 112.399 64.3518C111.801 62.8991 110.153 62.2131 108.72 62.8196C107.286 63.4261 106.609 65.0954 107.208 66.5482C107.806 68.0009 109.454 68.6869 110.887 68.0804Z" fill="#3244FF"/>
<path d="M111.7 74.2631C111.7 75.8348 110.446 77.1135 108.887 77.1135C107.328 77.1135 106.082 75.8374 106.082 74.2631C106.082 72.6888 107.336 71.4126 108.887 71.4126C110.438 71.4126 111.7 72.6888 111.7 74.2631Z" fill="#3244FF"/>
<path d="M106.19 85.5341C107.744 85.5341 109.003 84.258 109.003 82.6837C109.003 81.1094 107.744 79.8332 106.19 79.8332C104.637 79.8332 103.377 81.1094 103.377 82.6837C103.377 84.258 104.637 85.5341 106.19 85.5341Z" fill="#3244FF"/>
<path d="M101.821 93.2042C103.375 93.2042 104.634 91.928 104.634 90.3538C104.634 88.7795 103.375 87.5033 101.821 87.5033C100.268 87.5033 99.0085 88.7795 99.0085 90.3538C99.0085 91.928 100.268 93.2042 101.821 93.2042Z" fill="#3244FF"/>
<path d="M99.4679 105.362C99.4679 106.957 98.1905 108.251 96.6111 108.251C95.0318 108.251 93.7544 106.957 93.7544 105.362C93.7544 103.767 95.037 102.467 96.6111 102.467C98.1853 102.467 99.4679 103.761 99.4679 105.362Z" fill="#3244FF"/>
<path d="M90.6551 110.514C90.6551 112.114 89.3777 113.408 87.7984 113.408C86.2191 113.408 84.9417 112.114 84.9417 110.514C84.9417 108.913 86.2242 107.619 87.7984 107.619C89.3726 107.619 90.6551 108.918 90.6551 110.514Z" fill="#3244FF"/>
<path d="M78.1186 116.596C79.6963 116.596 80.9753 115.3 80.9753 113.701C80.9753 112.103 79.6963 110.806 78.1186 110.806C76.5408 110.806 75.2618 112.103 75.2618 113.701C75.2618 115.3 76.5408 116.596 78.1186 116.596Z" fill="#3244FF"/>
<path d="M68 117.674C69.5777 117.674 70.8567 116.378 70.8567 114.779C70.8567 113.18 69.5777 111.884 68 111.884C66.4223 111.884 65.1433 113.18 65.1433 114.779C65.1433 116.378 66.4223 117.674 68 117.674Z" fill="#3244FF"/>
<path d="M57.8815 116.596C59.4592 116.596 60.7382 115.3 60.7382 113.701C60.7382 112.103 59.4592 110.806 57.8815 110.806C56.3037 110.806 55.0247 112.103 55.0247 113.701C55.0247 115.3 56.3037 116.596 57.8815 116.596Z" fill="#3244FF"/>
<path d="M51.0609 110.514C51.0609 112.114 49.7784 113.408 48.2042 113.408C46.63 113.408 45.3475 112.114 45.3475 110.514C45.3475 108.913 46.6249 107.619 48.2042 107.619C49.7835 107.619 51.0609 108.918 51.0609 110.514Z" fill="#3244FF"/>
<path d="M42.2482 105.362C42.2482 106.957 40.9656 108.251 39.3915 108.251C37.8173 108.251 36.5347 106.957 36.5347 105.362C36.5347 103.767 37.8121 102.467 39.3915 102.467C40.9708 102.467 42.2482 103.761 42.2482 105.362Z" fill="#3244FF"/>
<path d="M34.6819 98.4606C34.6819 100.056 33.4045 101.35 31.8251 101.35C30.2458 101.35 28.9684 100.056 28.9684 98.4606C28.9684 96.8654 30.251 95.5657 31.8251 95.5657C33.3993 95.5657 34.6819 96.8601 34.6819 98.4606Z" fill="#3244FF"/>
<path d="M28.7052 90.1158C28.7052 91.711 27.4226 93.0107 25.8484 93.0107C24.2743 93.0107 22.9917 91.711 22.9917 90.1158C22.9917 88.5206 24.2691 87.2209 25.8484 87.2209C27.4278 87.2209 28.7052 88.5206 28.7052 90.1158Z" fill="#3244FF"/>
<path d="M24.5633 80.6988C24.5633 82.294 23.2808 83.5885 21.7066 83.5885C20.1324 83.5885 18.8499 82.294 18.8499 80.6988C18.8499 79.1036 20.1324 77.8039 21.7066 77.8039C23.2808 77.8039 24.5633 79.0984 24.5633 80.6988Z" fill="#3244FF"/>
<path d="M22.4446 70.6072C22.4446 72.2076 21.1672 73.5021 19.5931 73.5021C18.0189 73.5021 16.7363 72.2076 16.7363 70.6072C16.7363 69.0068 18.0137 67.7175 19.5931 67.7175C21.1724 67.7175 22.4446 69.012 22.4446 70.6072Z" fill="#3244FF"/>
<path d="M22.4446 60.2985C22.4446 61.8937 21.1672 63.1881 19.5931 63.1881C18.0189 63.1881 16.7363 61.8937 16.7363 60.2985C16.7363 58.7033 18.0137 57.4036 19.5931 57.4036C21.1724 57.4036 22.4446 58.698 22.4446 60.2985Z" fill="#3244FF"/>
<path d="M24.5633 50.2068C24.5633 51.8073 23.2808 53.1017 21.7066 53.1017C20.1324 53.1017 18.8499 51.8073 18.8499 50.2068C18.8499 48.6064 20.1324 47.3172 21.7066 47.3172C23.2808 47.3172 24.5633 48.6116 24.5633 50.2068Z" fill="#3244FF"/>
<path d="M28.6655 41.255C28.9191 39.6769 27.8624 38.1894 26.3052 37.9324C24.7479 37.6754 23.28 38.7463 23.0264 40.3243C22.7728 41.9023 23.8296 43.3899 25.3868 43.6469C26.944 43.9039 28.4119 42.833 28.6655 41.255Z" fill="#3244FF"/>
<path d="M34.6819 32.4451C34.6819 34.0455 33.4045 35.34 31.8251 35.34C30.2458 35.34 28.9684 34.0455 28.9684 32.4451C28.9684 30.8447 30.251 29.5554 31.8251 29.5554C33.3993 29.5554 34.6819 30.8499 34.6819 32.4451Z" fill="#3244FF"/>
<path d="M42.2482 25.5439C42.2482 27.1443 40.9656 28.4388 39.3915 28.4388C37.8173 28.4388 36.5347 27.1443 36.5347 25.5439C36.5347 23.9434 37.8121 22.6542 39.3915 22.6542C40.9708 22.6542 42.2482 23.9487 42.2482 25.5439Z" fill="#3244FF"/>
<path d="M51.0609 20.3921C51.0609 21.9874 49.7784 23.2871 48.2042 23.2871C46.63 23.2871 45.3475 21.9874 45.3475 20.3921C45.3475 18.7969 46.6249 17.4972 48.2042 17.4972C49.7835 17.4972 51.0609 18.7917 51.0609 20.3921Z" fill="#3244FF"/>
<path d="M57.8815 20.0993C59.4592 20.0993 60.7382 18.8032 60.7382 17.2043C60.7382 15.6055 59.4592 14.3094 57.8815 14.3094C56.3037 14.3094 55.0247 15.6055 55.0247 17.2043C55.0247 18.8032 56.3037 20.0993 57.8815 20.0993Z" fill="#3244FF"/>
<path d="M70.8206 16.5906C71.0742 15.0125 70.0175 13.525 68.4603 13.268C66.903 13.011 65.4351 14.0819 65.1815 15.6599C64.9279 17.2379 65.9846 18.7255 67.5419 18.9825C69.0991 19.2395 70.567 18.1686 70.8206 16.5906Z" fill="#3244FF"/>
<path d="M78.1186 20.0993C79.6963 20.0993 80.9753 18.8032 80.9753 17.2043C80.9753 15.6055 79.6963 14.3094 78.1186 14.3094C76.5408 14.3094 75.2618 15.6055 75.2618 17.2043C75.2618 18.8032 76.5408 20.0993 78.1186 20.0993Z" fill="#3244FF"/>
<path d="M90.6551 20.3921C90.6551 21.9874 89.3777 23.2871 87.7984 23.2871C86.2191 23.2871 84.9417 21.9874 84.9417 20.3921C84.9417 18.7969 86.2242 17.4972 87.7984 17.4972C89.3726 17.4972 90.6551 18.7917 90.6551 20.3921Z" fill="#3244FF"/>
<path d="M99.4679 25.5439C99.4679 27.1443 98.1905 28.4388 96.6111 28.4388C95.0318 28.4388 93.7544 27.1443 93.7544 25.5439C93.7544 23.9434 95.037 22.6542 96.6111 22.6542C98.1853 22.6542 99.4679 23.9487 99.4679 25.5439Z" fill="#3244FF"/>
<path d="M107.032 32.4451C107.032 34.0455 105.749 35.34 104.175 35.34C102.601 35.34 101.318 34.0455 101.318 32.4451C101.318 30.8447 102.596 29.5554 104.175 29.5554C105.754 29.5554 107.032 30.8499 107.032 32.4451Z" fill="#3244FF"/>
<path d="M113.011 40.7899C113.011 42.3851 111.733 43.6848 110.154 43.6848C108.575 43.6848 107.297 42.3851 107.297 40.7899C107.297 39.1947 108.58 37.895 110.154 37.895C111.728 37.895 113.011 39.1947 113.011 40.7899Z" fill="#3244FF"/>
<path d="M117.153 50.2068C117.153 51.8073 115.87 53.1017 114.296 53.1017C112.722 53.1017 111.439 51.8073 111.439 50.2068C111.439 48.6064 112.722 47.3172 114.296 47.3172C115.87 47.3172 117.153 48.6116 117.153 50.2068Z" fill="#3244FF"/>
<path d="M119.264 60.2985C119.264 61.8937 117.986 63.1881 116.407 63.1881C114.828 63.1881 113.555 61.8937 113.555 60.2985C113.555 58.7033 114.833 57.4036 116.407 57.4036C117.981 57.4036 119.264 58.698 119.264 60.2985Z" fill="#3244FF"/>
<path d="M119.264 70.6072C119.264 72.2076 117.986 73.5021 116.407 73.5021C114.828 73.5021 113.555 72.2076 113.555 70.6072C113.555 69.0068 114.833 67.7175 116.407 67.7175C117.981 67.7175 119.264 69.012 119.264 70.6072Z" fill="#3244FF"/>
<path d="M117.153 80.6988C117.153 82.294 115.87 83.5885 114.296 83.5885C112.722 83.5885 111.439 82.294 111.439 80.6988C111.439 79.1036 112.722 77.8039 114.296 77.8039C115.87 77.8039 117.153 79.0984 117.153 80.6988Z" fill="#3244FF"/>
<path d="M113.011 90.1158C113.011 91.711 111.733 93.0107 110.154 93.0107C108.575 93.0107 107.297 91.711 107.297 90.1158C107.297 88.5206 108.58 87.2209 110.154 87.2209C111.728 87.2209 113.011 88.5206 113.011 90.1158Z" fill="#3244FF"/>
<path d="M107.032 98.4606C107.032 100.056 105.749 101.35 104.175 101.35C102.601 101.35 101.318 100.056 101.318 98.4606C101.318 96.8654 102.596 95.5657 104.175 95.5657C105.754 95.5657 107.032 96.8601 107.032 98.4606Z" fill="#3244FF"/>
<path d="M98.4821 114.198C98.4821 115.718 97.2692 116.944 95.7725 116.944C94.2757 116.944 93.0628 115.72 93.0628 114.198C93.0628 112.676 94.2757 111.46 95.7725 111.46C97.2692 111.46 98.4821 112.684 98.4821 114.198Z" fill="#3244FF"/>
<path d="M87.8706 118.986C87.8706 120.501 86.6629 121.732 85.161 121.732C83.6591 121.732 82.4591 120.503 82.4591 118.986C82.4591 117.47 83.6668 116.241 85.161 116.241C86.6552 116.241 87.8706 117.47 87.8706 118.986Z" fill="#3244FF"/>
<path d="M73.8064 124.183C75.3029 124.183 76.516 122.953 76.516 121.437C76.516 119.92 75.3029 118.691 73.8064 118.691C72.3099 118.691 71.0967 119.92 71.0967 121.437C71.0967 122.953 72.3099 124.183 73.8064 124.183Z" fill="#3244FF"/>
<path d="M62.1937 124.183C63.6901 124.183 64.9033 122.953 64.9033 121.437C64.9033 119.92 63.6901 118.691 62.1937 118.691C60.6972 118.691 59.484 119.92 59.484 121.437C59.484 122.953 60.6972 124.183 62.1937 124.183Z" fill="#3244FF"/>
<path d="M53.5409 118.986C53.5409 120.501 52.3332 121.732 50.839 121.732C49.3448 121.732 48.1294 120.503 48.1294 118.986C48.1294 117.47 49.3371 116.241 50.839 116.241C52.3409 116.241 53.5409 117.47 53.5409 118.986Z" fill="#3244FF"/>
<path d="M42.9346 114.198C42.9346 115.718 41.7217 116.944 40.225 116.944C38.7282 116.944 37.5154 115.72 37.5154 114.198C37.5154 112.676 38.7282 111.46 40.225 111.46C41.7217 111.46 42.9346 112.684 42.9346 114.198Z" fill="#3244FF"/>
<path d="M33.5361 107.286C33.5361 108.801 32.3283 110.024 30.8264 110.024C29.3245 110.024 28.1245 108.801 28.1245 107.286C28.1245 105.772 29.3323 104.541 30.8264 104.541C32.3206 104.541 33.5361 105.765 33.5361 107.286Z" fill="#3244FF"/>
<path d="M25.7659 98.5416C25.7659 100.056 24.5581 101.28 23.064 101.28C21.5698 101.28 20.3543 100.056 20.3543 98.5416C20.3543 97.0275 21.5621 95.7958 23.064 95.7958C24.5659 95.7958 25.7659 97.0196 25.7659 98.5416Z" fill="#3244FF"/>
<path d="M19.9595 88.3454C19.9595 89.8595 18.7518 91.0912 17.2576 91.0912C15.7635 91.0912 14.548 89.8621 14.548 88.3454C14.548 86.8286 15.7609 85.6074 17.2576 85.6074C18.7544 85.6074 19.9595 86.8312 19.9595 88.3454Z" fill="#3244FF"/>
<path d="M15.5807 79.0988C16.6389 78.0265 16.6389 76.2879 15.5807 75.2156C14.5226 74.1433 12.8069 74.1433 11.7487 75.2156C10.6906 76.2879 10.6906 78.0265 11.7487 79.0988C12.8069 80.1711 14.5226 80.1711 15.5807 79.0988Z" fill="#3244FF"/>
<path d="M14.4859 67.2657C15.4769 66.1294 15.3713 64.3941 14.25 63.3898C13.1287 62.3856 11.4163 62.4926 10.4252 63.6289C9.43423 64.7652 9.53987 66.5005 10.6612 67.5048C11.7825 68.509 13.4949 68.402 14.4859 67.2657Z" fill="#3244FF"/>
<path d="M16.3037 54.3726C16.646 52.8963 15.7424 51.4184 14.2856 51.0716C12.8287 50.7248 11.3703 51.6404 11.0281 53.1167C10.6858 54.593 11.5894 56.071 13.0462 56.4178C14.5031 56.7646 15.9615 55.8489 16.3037 54.3726Z" fill="#3244FF"/>
<path d="M19.9595 42.5603C19.9595 44.0744 18.7518 45.2983 17.2576 45.2983C15.7635 45.2983 14.548 44.0744 14.548 42.5603C14.548 41.0462 15.7609 39.8144 17.2576 39.8144C18.7544 39.8144 19.9595 41.0435 19.9595 42.5603Z" fill="#3244FF"/>
<path d="M25.7659 32.364C25.7659 33.8834 24.5581 35.1099 23.064 35.1099C21.5698 35.1099 20.3543 33.886 20.3543 32.364C20.3543 30.8421 21.5621 29.626 23.064 29.626C24.5659 29.626 25.7659 30.8499 25.7659 32.364Z" fill="#3244FF"/>
<path d="M33.5361 23.6192C33.5361 25.1385 32.3283 26.365 30.8264 26.365C29.3245 26.365 28.1245 25.1411 28.1245 23.6192C28.1245 22.0972 29.3323 20.8812 30.8264 20.8812C32.3206 20.8812 33.5361 22.105 33.5361 23.6192Z" fill="#3244FF"/>
<path d="M42.9346 16.7075C42.9346 18.2216 41.7217 19.4455 40.225 19.4455C38.7282 19.4455 37.5154 18.2216 37.5154 16.7075C37.5154 15.1933 38.7282 13.9616 40.225 13.9616C41.7217 13.9616 42.9346 15.1855 42.9346 16.7075Z" fill="#3244FF"/>
<path d="M53.5409 11.9192C53.5409 13.4334 52.3332 14.6651 50.839 14.6651C49.3448 14.6651 48.1294 13.436 48.1294 11.9192C48.1294 10.4025 49.3371 9.17338 50.839 9.17338C52.3409 9.17338 53.5409 10.4025 53.5409 11.9192Z" fill="#3244FF"/>
<path d="M62.1937 12.2147C63.6901 12.2147 64.9033 10.9854 64.9033 9.46889C64.9033 7.9524 63.6901 6.72304 62.1937 6.72304C60.6972 6.72304 59.484 7.9524 59.484 9.46889C59.484 10.9854 60.6972 12.2147 62.1937 12.2147Z" fill="#3244FF"/>
<path d="M73.8064 12.2147C75.3029 12.2147 76.516 10.9854 76.516 9.46889C76.516 7.9524 75.3029 6.72304 73.8064 6.72304C72.3099 6.72304 71.0967 7.9524 71.0967 9.46889C71.0967 10.9854 72.3099 12.2147 73.8064 12.2147Z" fill="#3244FF"/>
<path d="M87.8706 11.9192C87.8706 13.4334 86.6629 14.6651 85.161 14.6651C83.6591 14.6651 82.4591 13.436 82.4591 11.9192C82.4591 10.4025 83.6668 9.17338 85.161 9.17338C86.6552 9.17338 87.8706 10.4025 87.8706 11.9192Z" fill="#3244FF"/>
<path d="M98.4821 16.7075C98.4821 18.2216 97.2692 19.4455 95.7725 19.4455C94.2757 19.4455 93.0628 18.2216 93.0628 16.7075C93.0628 15.1933 94.2757 13.9616 95.7725 13.9616C97.2692 13.9616 98.4821 15.1855 98.4821 16.7075Z" fill="#3244FF"/>
<path d="M107.875 23.6192C107.875 25.1385 106.668 26.365 105.174 26.365C103.679 26.365 102.464 25.1411 102.464 23.6192C102.464 22.0972 103.672 20.8812 105.174 20.8812C106.675 20.8812 107.875 22.105 107.875 23.6192Z" fill="#3244FF"/>
<path d="M115.646 32.364C115.646 33.8834 114.438 35.1099 112.936 35.1099C111.434 35.1099 110.234 33.886 110.234 32.364C110.234 30.8421 111.442 29.626 112.936 29.626C114.43 29.626 115.646 30.8499 115.646 32.364Z" fill="#3244FF"/>
<path d="M121.452 42.5603C121.452 44.0744 120.239 45.2983 118.742 45.2983C117.246 45.2983 116.04 44.0744 116.04 42.5603C116.04 41.0462 117.248 39.8144 118.742 39.8144C120.237 39.8144 121.452 41.0435 121.452 42.5603Z" fill="#3244FF"/>
<path d="M125.001 54.2288C125.263 52.7359 124.282 51.3098 122.809 51.0436C121.335 50.7774 119.928 51.7719 119.665 53.2648C119.403 54.7578 120.384 56.1838 121.857 56.4501C123.331 56.7163 124.738 55.7218 125.001 54.2288Z" fill="#3244FF"/>
<path d="M124.59 67.9955C125.971 67.4115 126.623 65.8036 126.047 64.404C125.471 63.0045 123.884 62.3434 122.503 62.9274C121.122 63.5114 120.47 65.1194 121.046 66.5189C121.622 67.9184 123.209 68.5795 124.59 67.9955Z" fill="#3244FF"/>
<path d="M123.573 79.6053C124.904 78.9117 125.428 77.2561 124.743 75.9076C124.058 74.559 122.425 74.0281 121.094 74.7218C119.763 75.4155 119.239 77.071 119.924 78.4195C120.608 79.7681 122.242 80.299 123.573 79.6053Z" fill="#3244FF"/>
<path d="M121.452 88.3454C121.452 89.8595 120.239 91.0912 118.742 91.0912C117.246 91.0912 116.04 89.8621 116.04 88.3454C116.04 86.8286 117.248 85.6074 118.742 85.6074C120.237 85.6074 121.452 86.8312 121.452 88.3454Z" fill="#3244FF"/>
<path d="M115.646 98.5416C115.646 100.056 114.438 101.28 112.936 101.28C111.434 101.28 110.234 100.056 110.234 98.5416C110.234 97.0275 111.442 95.7958 112.936 95.7958C114.43 95.7958 115.646 97.0196 115.646 98.5416Z" fill="#3244FF"/>
<path d="M107.875 107.286C107.875 108.801 106.668 110.024 105.174 110.024C103.679 110.024 102.464 108.801 102.464 107.286C102.464 105.772 103.672 104.541 105.174 104.541C106.675 104.541 107.875 105.765 107.875 107.286Z" fill="#3244FF"/>
<path d="M95.7621 123.241C95.7621 124.57 94.6963 125.644 93.3854 125.644C92.0744 125.644 91.0138 124.57 91.0138 123.241C91.0138 121.913 92.0744 120.833 93.3854 120.833C94.6963 120.833 95.7621 121.913 95.7621 123.241Z" fill="#3244FF"/>
<path d="M83.352 127.326C83.352 128.654 82.2862 129.729 80.9753 129.729C79.6643 129.729 78.6037 128.654 78.6037 127.326C78.6037 125.997 79.6643 124.917 80.9753 124.917C82.2862 124.917 83.352 125.997 83.352 127.326Z" fill="#3244FF"/>
<path d="M68 131.115C69.3126 131.115 70.3767 130.037 70.3767 128.707C70.3767 127.377 69.3126 126.298 68 126.298C66.6874 126.298 65.6233 127.377 65.6233 128.707C65.6233 130.037 66.6874 131.115 68 131.115Z" fill="#3244FF"/>
<path d="M57.3937 127.326C57.3937 128.654 56.3331 129.729 55.0222 129.729C53.7112 129.729 52.6454 128.654 52.6454 127.326C52.6454 125.997 53.7112 124.917 55.0222 124.917C56.3331 124.917 57.3937 125.997 57.3937 127.326Z" fill="#3244FF"/>
<path d="M44.9836 123.241C44.9836 124.57 43.923 125.644 42.612 125.644C41.3011 125.644 40.2353 124.57 40.2353 123.241C40.2353 121.913 41.3011 120.833 42.612 120.833C43.923 120.833 44.9836 121.913 44.9836 123.241Z" fill="#3244FF"/>
<path d="M33.6857 116.625C33.6857 117.953 32.6199 119.034 31.309 119.034C29.9981 119.034 28.9374 117.953 28.9374 116.625C28.9374 115.297 29.9981 114.222 31.309 114.222C32.6199 114.222 33.6857 115.297 33.6857 116.625Z" fill="#3244FF"/>
<path d="M23.9853 107.781C23.9853 109.104 22.9246 110.184 21.6137 110.184C20.3027 110.184 19.237 109.104 19.237 107.781C19.237 106.458 20.3027 105.372 21.6137 105.372C22.9246 105.372 23.9853 106.452 23.9853 107.781Z" fill="#3244FF"/>
<path d="M16.3183 97.0798C16.3183 98.4083 15.2525 99.4883 13.9416 99.4883C12.6306 99.4883 11.57 98.4083 11.57 97.0798C11.57 95.7513 12.6306 94.6713 13.9416 94.6713C15.2525 94.6713 16.3183 95.7513 16.3183 97.0798Z" fill="#3244FF"/>
<path d="M11.01 84.998C11.01 86.3265 9.9442 87.4065 8.63326 87.4065C7.32231 87.4065 6.26168 86.3265 6.26168 84.998C6.26168 83.6696 7.32747 82.5948 8.63326 82.5948C9.93904 82.5948 11.01 83.6696 11.01 84.998Z" fill="#3244FF"/>
<path d="M8.29519 72.0638C8.29519 73.3923 7.23457 74.4723 5.92362 74.4723C4.61268 74.4723 3.54689 73.3923 3.54689 72.0638C3.54689 70.7353 4.61268 69.6605 5.92362 69.6605C7.23457 69.6605 8.29519 70.7353 8.29519 72.0638Z" fill="#3244FF"/>
<path d="M8.29519 58.8419C8.29519 60.1703 7.23457 61.2451 5.92362 61.2451C4.61268 61.2451 3.54689 60.1703 3.54689 58.8419C3.54689 57.5134 4.61268 56.4334 5.92362 56.4334C7.23457 56.4334 8.29519 57.5134 8.29519 58.8419Z" fill="#3244FF"/>
<path d="M11.01 45.9076C11.01 47.2361 9.9442 48.3109 8.63326 48.3109C7.32231 48.3109 6.26168 47.2361 6.26168 45.9076C6.26168 44.5791 7.32747 43.4991 8.63326 43.4991C9.93904 43.4991 11.01 44.5791 11.01 45.9076Z" fill="#3244FF"/>
<path d="M16.3183 33.8259C16.3183 35.1544 15.2525 36.2344 13.9416 36.2344C12.6306 36.2344 11.57 35.1544 11.57 33.8259C11.57 32.4974 12.6306 31.4174 13.9416 31.4174C15.2525 31.4174 16.3183 32.4974 16.3183 33.8259Z" fill="#3244FF"/>
<path d="M23.9853 23.1249C23.9853 24.4534 22.9246 25.5334 21.6137 25.5334C20.3027 25.5334 19.237 24.4534 19.237 23.1249C19.237 21.7964 20.3027 20.7216 21.6137 20.7216C22.9246 20.7216 23.9853 21.8017 23.9853 23.1249Z" fill="#3244FF"/>
<path d="M33.6857 14.2807C33.6857 15.6091 32.6199 16.6839 31.309 16.6839C29.9981 16.6839 28.9374 15.6091 28.9374 14.2807C28.9374 12.9522 29.9981 11.8722 31.309 11.8722C32.6199 11.8722 33.6857 12.9522 33.6857 14.2807Z" fill="#3244FF"/>
<path d="M44.9836 7.66448C44.9836 8.99294 43.923 10.073 42.612 10.073C41.3011 10.073 40.2353 8.99294 40.2353 7.66448C40.2353 6.33601 41.3011 5.26121 42.612 5.26121C43.923 5.26121 44.9836 6.33601 44.9836 7.66448Z" fill="#3244FF"/>
<path d="M57.3937 3.5797C57.3937 4.90817 56.3331 5.9882 55.0222 5.9882C53.7112 5.9882 52.6454 4.90817 52.6454 3.5797C52.6454 2.25123 53.7112 1.17642 55.0222 1.17642C56.3331 1.17642 57.3937 2.25123 57.3937 3.5797Z" fill="#3244FF"/>
<path d="M69.6815 3.90213C70.6097 2.96155 70.6097 1.43658 69.6815 0.495998C68.7534 -0.44458 67.2485 -0.444582 66.3203 0.495996C65.3922 1.43657 65.3922 2.96155 66.3203 3.90213C67.2485 4.84271 68.7534 4.84271 69.6815 3.90213Z" fill="#3244FF"/>
<path d="M83.352 3.5797C83.352 4.90817 82.2862 5.9882 80.9753 5.9882C79.6643 5.9882 78.6037 4.90817 78.6037 3.5797C78.6037 2.25123 79.6643 1.17642 80.9753 1.17642C82.2862 1.17642 83.352 2.25123 83.352 3.5797Z" fill="#3244FF"/>
<path d="M95.7621 7.66448C95.7621 8.99294 94.6963 10.073 93.3854 10.073C92.0744 10.073 91.0138 8.99294 91.0138 7.66448C91.0138 6.33601 92.0744 5.26121 93.3854 5.26121C94.6963 5.26121 95.7621 6.33601 95.7621 7.66448Z" fill="#3244FF"/>
<path d="M107.06 14.2807C107.06 15.6091 105.999 16.6839 104.688 16.6839C103.377 16.6839 102.312 15.6091 102.312 14.2807C102.312 12.9522 103.377 11.8722 104.688 11.8722C105.999 11.8722 107.06 12.9522 107.06 14.2807Z" fill="#3244FF"/>
<path d="M116.763 23.1249C116.763 24.4534 115.697 25.5334 114.386 25.5334C113.075 25.5334 112.015 24.4534 112.015 23.1249C112.015 21.7964 113.075 20.7216 114.386 20.7216C115.697 20.7216 116.763 21.8017 116.763 23.1249Z" fill="#3244FF"/>
<path d="M124.43 33.8259C124.43 35.1544 123.369 36.2344 122.058 36.2344C120.747 36.2344 119.682 35.1544 119.682 33.8259C119.682 32.4974 120.747 31.4174 122.058 31.4174C123.369 31.4174 124.43 32.4974 124.43 33.8259Z" fill="#3244FF"/>
<path d="M129.738 45.9076C129.738 47.2361 128.673 48.3109 127.367 48.3109C126.061 48.3109 124.99 47.2361 124.99 45.9076C124.99 44.5791 126.056 43.4991 127.367 43.4991C128.678 43.4991 129.738 44.5791 129.738 45.9076Z" fill="#3244FF"/>
<path d="M132.453 58.8419C132.453 60.1703 131.387 61.2451 130.076 61.2451C128.765 61.2451 127.705 60.1703 127.705 58.8419C127.705 57.5134 128.765 56.4334 130.076 56.4334C131.387 56.4334 132.453 57.5134 132.453 58.8419Z" fill="#3244FF"/>
<path d="M132.453 72.0638C132.453 73.3923 131.387 74.4723 130.076 74.4723C128.765 74.4723 127.705 73.3923 127.705 72.0638C127.705 70.7353 128.765 69.6605 130.076 69.6605C131.387 69.6605 132.453 70.7353 132.453 72.0638Z" fill="#3244FF"/>
<path d="M129.738 84.998C129.738 86.3265 128.673 87.4065 127.367 87.4065C126.061 87.4065 124.99 86.3265 124.99 84.998C124.99 83.6696 126.056 82.5948 127.367 82.5948C128.678 82.5948 129.738 83.6696 129.738 84.998Z" fill="#3244FF"/>
<path d="M124.43 97.0798C124.43 98.4083 123.369 99.4883 122.058 99.4883C120.747 99.4883 119.682 98.4083 119.682 97.0798C119.682 95.7513 120.747 94.6713 122.058 94.6713C123.369 94.6713 124.43 95.7513 124.43 97.0798Z" fill="#3244FF"/>
<path d="M116.763 107.781C116.763 109.104 115.697 110.184 114.386 110.184C113.075 110.184 112.015 109.104 112.015 107.781C112.015 106.458 113.075 105.372 114.386 105.372C115.697 105.372 116.763 106.452 116.763 107.781Z" fill="#3244FF"/>
<path d="M107.06 116.625C107.06 117.953 105.999 119.034 104.688 119.034C103.377 119.034 102.312 117.953 102.312 116.625C102.312 115.297 103.377 114.222 104.688 114.222C105.999 114.222 107.06 115.297 107.06 116.625Z" fill="#3244FF"/>
<path d="M91.2899 132.234C91.2899 133.286 90.4487 134.138 89.4113 134.138C88.3739 134.138 87.5326 133.286 87.5326 132.234C87.5326 131.183 88.3739 130.331 89.4113 130.331C90.4487 130.331 91.2899 131.183 91.2899 132.234Z" fill="#3244FF"/>
<path d="M75.9684 137.037C76.9277 136.636 77.3848 135.523 76.9895 134.551C76.5941 133.579 75.4959 133.116 74.5366 133.517C73.5773 133.917 73.1202 135.03 73.5156 136.002C73.911 136.974 75.0092 137.438 75.9684 137.037Z" fill="#3244FF"/>
<path d="M62.6349 135.289C62.6349 136.34 61.7937 137.193 60.7563 137.193C59.7189 137.193 58.8776 136.34 58.8776 135.289C58.8776 134.238 59.7189 133.385 60.7563 133.385C61.7937 133.385 62.6349 134.238 62.6349 135.289Z" fill="#3244FF"/>
<path d="M47.3187 133.984C48.2765 133.58 48.7296 132.465 48.3307 131.495C47.9318 130.524 46.832 130.065 45.8742 130.469C44.9164 130.873 44.4633 131.988 44.8622 132.959C45.2611 133.929 46.3609 134.388 47.3187 133.984Z" fill="#3244FF"/>
<path d="M33.3528 128.168C34.3904 128.168 35.2315 127.316 35.2315 126.264C35.2315 125.213 34.3904 124.36 33.3528 124.36C32.3153 124.36 31.4742 125.213 31.4742 126.264C31.4742 127.316 32.3153 128.168 33.3528 128.168Z" fill="#3244FF"/>
<path d="M23.5156 117.634C23.5156 118.686 22.6743 119.538 21.6369 119.538C20.5995 119.538 19.7531 118.686 19.7531 117.634C19.7531 116.583 20.5943 115.731 21.6369 115.731C22.6795 115.731 23.5156 116.583 23.5156 117.634Z" fill="#3244FF"/>
<path d="M13.2518 108.087C13.9979 107.356 14.0182 106.151 13.2972 105.395C12.5762 104.639 11.3869 104.618 10.6408 105.349C9.89465 106.079 9.87431 107.285 10.5953 108.041C11.3163 108.797 12.5057 108.817 13.2518 108.087Z" fill="#3244FF"/>
<path d="M6.57651 94.0149C6.57651 95.0662 5.73524 95.9187 4.69784 95.9187C3.66043 95.9187 2.81916 95.0662 2.81916 94.0149C2.81916 92.9636 3.66043 92.1059 4.69784 92.1059C5.73524 92.1059 6.57651 92.9584 6.57651 94.0149Z" fill="#3244FF"/>
<path d="M0.947431 81.8078C1.90371 81.3999 2.35258 80.2836 1.95001 79.3145C1.54744 78.3455 0.445867 77.8906 -0.510416 78.2986C-1.4667 78.7065 -1.91557 79.8228 -1.513 80.7919C-1.11042 81.7609 -0.00885201 82.2158 0.947431 81.8078Z" fill="#3244FF"/>
<path d="M0.586938 65.4528C0.586938 66.5041 -0.254339 67.3566 -1.29174 67.3566C-2.32914 67.3566 -3.17042 66.5041 -3.17042 65.4528C-3.17042 64.4016 -2.32914 63.549 -1.29174 63.549C-0.254339 63.549 0.586938 64.4016 0.586938 65.4528Z" fill="#3244FF"/>
<path d="M2.07358 51.1551C2.2409 50.1175 1.54643 49.1388 0.522444 48.9693C-0.501542 48.7997 -1.46728 49.5035 -1.6346 50.5411C-1.80192 51.5788 -1.10745 52.5575 -0.0834646 52.727C0.940521 52.8966 1.90626 52.1928 2.07358 51.1551Z" fill="#3244FF"/>
<path d="M6.57651 36.8908C6.57651 37.9473 5.73524 38.7998 4.69784 38.7998C3.66043 38.7998 2.81916 37.9473 2.81916 36.8908C2.81916 35.8343 3.66043 34.987 4.69784 34.987C5.73524 34.987 6.57651 35.8395 6.57651 36.8908Z" fill="#3244FF"/>
<path d="M13.7726 24.6125C14.0076 23.5884 13.3788 22.5652 12.3682 22.327C11.3576 22.0889 10.3479 22.7261 10.1129 23.7502C9.87789 24.7743 10.5066 25.7975 11.5173 26.0357C12.5279 26.2738 13.5376 25.6366 13.7726 24.6125Z" fill="#3244FF"/>
<path d="M23.5156 13.2712C23.5156 14.3225 22.6743 15.175 21.6369 15.175C20.5995 15.175 19.7531 14.3225 19.7531 13.2712C19.7531 12.22 20.5943 11.3674 21.6369 11.3674C22.6795 11.3674 23.5156 12.22 23.5156 13.2712Z" fill="#3244FF"/>
<path d="M35.1776 5.07929C35.4166 4.05614 34.7919 3.03034 33.7822 2.7881C32.7726 2.54586 31.7603 3.17892 31.5213 4.20206C31.2822 5.22521 31.9069 6.25101 32.9166 6.49325C33.9262 6.73549 34.9385 6.10244 35.1776 5.07929Z" fill="#3244FF"/>
<path d="M46.5887 0.574952C47.6263 0.574952 48.4674 -0.277403 48.4674 -1.32884C48.4674 -2.38027 47.6263 -3.23263 46.5887 -3.23263C45.5512 -3.23263 44.7101 -2.38027 44.7101 -1.32884C44.7101 -0.277403 45.5512 0.574952 46.5887 0.574952Z" fill="#3244FF"/>
<path d="M62.6349 -4.38326C62.6349 -3.332 61.7937 -2.47947 60.7563 -2.47947C59.7189 -2.47947 58.8776 -3.332 58.8776 -4.38326C58.8776 -5.43453 59.7189 -6.28705 60.7563 -6.28705C61.7937 -6.28705 62.6349 -5.43453 62.6349 -4.38326Z" fill="#3244FF"/>
<path d="M77.1033 -4.07694C77.2691 -5.11484 76.5733 -6.09251 75.5491 -6.26061C74.5249 -6.42872 73.5601 -5.7236 73.3942 -4.6857C73.2284 -3.64779 73.9242 -2.67012 74.9484 -2.50202C75.9726 -2.33391 76.9374 -3.03903 77.1033 -4.07694Z" fill="#3244FF"/>
<path d="M91.2899 -1.32884C91.2899 -0.277568 90.4487 0.574952 89.4113 0.574952C88.3739 0.574952 87.5326 -0.277568 87.5326 -1.32884C87.5326 -2.3801 88.3739 -3.23263 89.4113 -3.23263C90.4487 -3.23263 91.2899 -2.3801 91.2899 -1.32884Z" fill="#3244FF"/>
<path d="M104.479 5.05529C104.705 4.02921 104.068 3.01134 103.056 2.7818C102.043 2.55226 101.039 3.19797 100.812 4.22404C100.586 5.25011 101.223 6.268 102.235 6.49754C103.248 6.72708 104.252 6.08136 104.479 5.05529Z" fill="#3244FF"/>
<path d="M116.247 13.2712C116.247 14.3225 115.406 15.175 114.363 15.175C113.321 15.175 112.484 14.3225 112.484 13.2712C112.484 12.22 113.326 11.3674 114.363 11.3674C115.401 11.3674 116.247 12.22 116.247 13.2712Z" fill="#3244FF"/>
<path d="M125.917 24.4872C126.084 23.4494 125.389 22.4712 124.364 22.3024C123.34 22.1336 122.375 22.838 122.208 23.8758C122.042 24.9136 122.737 25.8917 123.761 26.0606C124.785 26.2294 125.75 25.525 125.917 24.4872Z" fill="#3244FF"/>
<path d="M133.181 36.8908C133.181 37.9473 132.34 38.7998 131.302 38.7998C130.265 38.7998 129.424 37.9473 129.424 36.8908C129.424 35.8343 130.265 34.987 131.302 34.987C132.34 34.987 133.181 35.8395 133.181 36.8908Z" fill="#3244FF"/>
<path d="M137.609 51.2875C137.847 50.264 137.22 49.2391 136.21 48.9983C135.201 48.7574 134.189 49.3919 133.951 50.4154C133.714 51.4389 134.34 52.4638 135.35 52.7046C136.36 52.9454 137.371 52.3109 137.609 51.2875Z" fill="#3244FF"/>
<path d="M138.621 66.7991C139.355 66.0556 139.355 64.8502 138.621 64.1067C137.887 63.3633 136.698 63.3632 135.964 64.1067C135.231 64.8502 135.231 66.0556 135.964 66.7991C136.698 67.5426 137.887 67.5426 138.621 66.7991Z" fill="#3244FF"/>
<path d="M137.107 81.3995C137.841 80.656 137.841 79.4506 137.107 78.7071C136.374 77.9637 135.184 77.9637 134.451 78.7071C133.717 79.4506 133.717 80.656 134.451 81.3995C135.184 82.143 136.374 82.143 137.107 81.3995Z" fill="#3244FF"/>
<path d="M133.181 94.0149C133.181 95.0662 132.34 95.9187 131.302 95.9187C130.265 95.9187 129.424 95.0662 129.424 94.0149C129.424 92.9636 130.265 92.1059 131.302 92.1059C132.34 92.1059 133.181 92.9584 133.181 94.0149Z" fill="#3244FF"/>
<path d="M124.784 108.47C125.742 108.065 126.195 106.951 125.796 105.98C125.397 105.01 124.298 104.55 123.34 104.955C122.382 105.359 121.929 106.473 122.328 107.444C122.727 108.415 123.826 108.874 124.784 108.47Z" fill="#3244FF"/>
<path d="M116.247 117.634C116.247 118.686 115.406 119.538 114.363 119.538C113.321 119.538 112.484 118.686 112.484 117.634C112.484 116.583 113.326 115.731 114.363 115.731C115.401 115.731 116.247 116.583 116.247 117.634Z" fill="#3244FF"/>
<path d="M102.647 128.168C103.685 128.168 104.526 127.316 104.526 126.264C104.526 125.213 103.685 124.36 102.647 124.36C101.61 124.36 100.768 125.213 100.768 126.264C100.768 127.316 101.61 128.168 102.647 128.168Z" fill="#3244FF"/>
<path d="M85.0887 140.945C85.0887 141.649 84.5287 142.222 83.8346 142.222C83.1404 142.222 82.5804 141.646 82.5804 140.945C82.5804 140.245 83.1404 139.674 83.8346 139.674C84.5287 139.674 85.0887 140.242 85.0887 140.945Z" fill="#3244FF"/>
<path d="M69.2542 142.635C69.2542 143.338 68.6942 143.906 68 143.906C67.3058 143.906 66.7458 143.338 66.7458 142.635C66.7458 141.931 67.3058 141.364 68 141.364C68.6942 141.364 69.2542 141.931 69.2542 142.635Z" fill="#3244FF"/>
<path d="M53.4196 140.945C53.4196 141.649 52.8596 142.222 52.1654 142.222C51.4713 142.222 50.9113 141.646 50.9113 140.945C50.9113 140.245 51.4713 139.674 52.1654 139.674C52.8596 139.674 53.4196 140.242 53.4196 140.945Z" fill="#3244FF"/>
<path d="M38.2792 135.961C38.2792 136.664 37.7115 137.232 37.0199 137.232C36.3283 137.232 35.7657 136.664 35.7657 135.961C35.7657 135.258 36.3257 134.69 37.0199 134.69C37.7141 134.69 38.2792 135.258 38.2792 135.961Z" fill="#3244FF"/>
<path d="M24.4885 127.896C24.4885 128.6 23.9285 129.167 23.2291 129.167C22.5298 129.167 21.975 128.6 21.975 127.896C21.975 127.193 22.535 126.625 23.2291 126.625C23.9233 126.625 24.4885 127.193 24.4885 127.896Z" fill="#3244FF"/>
<path d="M12.6513 117.096C12.6513 117.799 12.0913 118.372 11.3971 118.372C10.7029 118.372 10.1429 117.797 10.1429 117.096C10.1429 116.395 10.7029 115.825 11.3971 115.825C12.0913 115.825 12.6513 116.392 12.6513 117.096Z" fill="#3244FF"/>
<path d="M3.29399 104.044C3.29399 104.747 2.734 105.315 2.03981 105.315C1.34563 105.315 0.785642 104.747 0.785642 104.044C0.785642 103.34 1.34563 102.773 2.03981 102.773C2.734 102.773 3.29399 103.34 3.29399 104.044Z" fill="#3244FF"/>
<path d="M-3.18074 89.3025C-3.18074 90.006 -3.74073 90.5734 -4.43491 90.5734C-5.1291 90.5734 -5.68909 90.006 -5.68909 89.3025C-5.68909 88.599 -5.1291 88.0316 -4.43491 88.0316C-3.74073 88.0316 -3.18074 88.599 -3.18074 89.3025Z" fill="#3244FF"/>
<path d="M-6.49165 73.5204C-6.49165 74.2239 -7.05165 74.7913 -7.74583 74.7913C-8.44001 74.7913 -9 74.2239 -9 73.5204C-9 72.8169 -8.44001 72.2495 -7.74583 72.2495C-7.05165 72.2495 -6.49165 72.8169 -6.49165 73.5204Z" fill="#3244FF"/>
<path d="M-6.49165 57.3853C-6.49165 58.0887 -7.05165 58.6562 -7.74583 58.6562C-8.44001 58.6562 -9 58.0887 -9 57.3853C-9 56.6818 -8.44001 56.1143 -7.74583 56.1143C-7.05165 56.1143 -6.49165 56.6818 -6.49165 57.3853Z" fill="#3244FF"/>
<path d="M-3.18074 41.6032C-3.18074 42.3066 -3.74073 42.8741 -4.43491 42.8741C-5.1291 42.8741 -5.68909 42.3066 -5.68909 41.6032C-5.68909 40.8997 -5.1291 40.3322 -4.43491 40.3322C-3.74073 40.3322 -3.18074 40.8997 -3.18074 41.6032Z" fill="#3244FF"/>
<path d="M3.29399 26.8619C3.29399 27.5653 2.734 28.1328 2.03981 28.1328C1.34563 28.1328 0.785642 27.5653 0.785642 26.8619C0.785642 26.1584 1.34563 25.5909 2.03981 25.5909C2.734 25.5909 3.29399 26.1584 3.29399 26.8619Z" fill="#3244FF"/>
<path d="M12.6513 13.8099C12.6513 14.5134 12.0913 15.0809 11.3971 15.0809C10.7029 15.0809 10.1429 14.5134 10.1429 13.8099C10.1429 13.1065 10.7029 12.5338 11.3971 12.5338C12.0913 12.5338 12.6513 13.1091 12.6513 13.8099Z" fill="#3244FF"/>
<path d="M24.4885 3.00961C24.4885 3.71307 23.9285 4.28055 23.2291 4.28055C22.5298 4.28055 21.975 3.71307 21.975 3.00961C21.975 2.30615 22.535 1.73867 23.2291 1.73867C23.9233 1.73867 24.4885 2.30615 24.4885 3.00961Z" fill="#3244FF"/>
<path d="M38.2792 -5.05535C38.2792 -4.35189 37.7115 -3.78441 37.0199 -3.78441C36.3283 -3.78441 35.7657 -4.35189 35.7657 -5.05535C35.7657 -5.75881 36.3257 -6.32628 37.0199 -6.32628C37.7141 -6.32628 38.2792 -5.75881 38.2792 -5.05535Z" fill="#3244FF"/>
<path d="M53.4196 -10.0397C53.4196 -9.33625 52.8596 -8.76878 52.1654 -8.76878C51.4713 -8.76878 50.9113 -9.33625 50.9113 -10.0397C50.9113 -10.7432 51.4713 -11.3159 52.1654 -11.3159C52.8596 -11.3159 53.4196 -10.7406 53.4196 -10.0397Z" fill="#3244FF"/>
<path d="M69.2542 -11.7291C69.2542 -11.0256 68.6942 -10.4581 68 -10.4581C67.3058 -10.4581 66.7458 -11.0256 66.7458 -11.7291C66.7458 -12.4325 67.3058 -13 68 -13C68.6942 -13 69.2542 -12.4325 69.2542 -11.7291Z" fill="#3244FF"/>
<path d="M85.0887 -10.0397C85.0887 -9.33625 84.5287 -8.76878 83.8346 -8.76878C83.1404 -8.76878 82.5804 -9.33625 82.5804 -10.0397C82.5804 -10.7432 83.1404 -11.3159 83.8346 -11.3159C84.5287 -11.3159 85.0887 -10.7406 85.0887 -10.0397Z" fill="#3244FF"/>
<path d="M100.234 -5.05535C100.234 -4.35189 99.6743 -3.78441 98.9801 -3.78441C98.2859 -3.78441 97.7208 -4.35189 97.7208 -5.05535C97.7208 -5.75881 98.2885 -6.32628 98.9801 -6.32628C99.6717 -6.32628 100.234 -5.75881 100.234 -5.05535Z" fill="#3244FF"/>
<path d="M114.025 3.00961C114.025 3.71307 113.465 4.28055 112.771 4.28055C112.077 4.28055 111.512 3.71307 111.512 3.00961C111.512 2.30615 112.072 1.73867 112.771 1.73867C113.47 1.73867 114.025 2.30615 114.025 3.00961Z" fill="#3244FF"/>
<path d="M125.857 13.8099C125.857 14.5134 125.297 15.0809 124.603 15.0809C123.909 15.0809 123.349 14.5134 123.349 13.8099C123.349 13.1065 123.909 12.5338 124.603 12.5338C125.297 12.5338 125.857 13.1091 125.857 13.8099Z" fill="#3244FF"/>
<path d="M133.96 28.1328C134.653 28.1328 135.214 27.5638 135.214 26.8619C135.214 26.16 134.653 25.5909 133.96 25.5909C133.268 25.5909 132.706 26.16 132.706 26.8619C132.706 27.5638 133.268 28.1328 133.96 28.1328Z" fill="#3244FF"/>
<path d="M141.689 41.6032C141.689 42.3066 141.129 42.8741 140.435 42.8741C139.741 42.8741 139.181 42.3066 139.181 41.6032C139.181 40.8997 139.741 40.3322 140.435 40.3322C141.129 40.3322 141.689 40.8997 141.689 41.6032Z" fill="#3244FF"/>
<path d="M145 57.3853C145 58.0887 144.44 58.6562 143.746 58.6562C143.052 58.6562 142.492 58.0887 142.492 57.3853C142.492 56.6818 143.052 56.1143 143.746 56.1143C144.44 56.1143 145 56.6818 145 57.3853Z" fill="#3244FF"/>
<path d="M145 73.5204C145 74.2239 144.44 74.7913 143.746 74.7913C143.052 74.7913 142.492 74.2239 142.492 73.5204C142.492 72.8169 143.052 72.2495 143.746 72.2495C144.44 72.2495 145 72.8169 145 73.5204Z" fill="#3244FF"/>
<path d="M140.435 90.5734C141.128 90.5734 141.689 90.0044 141.689 89.3025C141.689 88.6006 141.128 88.0316 140.435 88.0316C139.742 88.0316 139.181 88.6006 139.181 89.3025C139.181 90.0044 139.742 90.5734 140.435 90.5734Z" fill="#3244FF"/>
<path d="M133.96 105.315C134.653 105.315 135.214 104.746 135.214 104.044C135.214 103.342 134.653 102.773 133.96 102.773C133.268 102.773 132.706 103.342 132.706 104.044C132.706 104.746 133.268 105.315 133.96 105.315Z" fill="#3244FF"/>
<path d="M125.857 117.096C125.857 117.799 125.297 118.372 124.603 118.372C123.909 118.372 123.349 117.797 123.349 117.096C123.349 116.395 123.909 115.825 124.603 115.825C125.297 115.825 125.857 116.392 125.857 117.096Z" fill="#3244FF"/>
<path d="M114.025 127.896C114.025 128.6 113.465 129.167 112.771 129.167C112.077 129.167 111.512 128.6 111.512 127.896C111.512 127.193 112.072 126.625 112.771 126.625C113.47 126.625 114.025 127.193 114.025 127.896Z" fill="#3244FF"/>
<path d="M100.234 135.961C100.234 136.664 99.6743 137.232 98.9801 137.232C98.2859 137.232 97.7208 136.664 97.7208 135.961C97.7208 135.258 98.2885 134.69 98.9801 134.69C99.6717 134.69 100.234 135.258 100.234 135.961Z" fill="#3244FF"/>
</g>
</svg>
