<svg width="152" height="38" viewBox="0 0 152 38" fill="none" xmlns="http://www.w3.org/2000/svg">
<path d="M4.00033 25.6666C3.6467 25.6666 3.30756 25.5262 3.05752 25.2761C2.80747 25.0261 2.66699 24.6869 2.66699 24.3333C2.66699 23.9797 2.80747 23.6405 3.05752 23.3905C3.30756 23.1404 3.6467 23 4.00033 23H18.0003C19.3337 23 20.667 25.6666 20.0003 25.6666H4.00033ZM22.667 25.6666C22.3134 25.6666 21.9742 25.5262 21.7242 25.2761C21.4741 25.0261 21.3337 24.6869 21.3337 24.3333C21.3337 23.9797 21.4741 23.6405 21.7242 23.3905C21.9742 23.1404 22.3134 23 22.667 23H28.0003C28.3539 23 28.6931 23.1404 28.9431 23.3905C29.1932 23.6405 29.3337 23.9797 29.3337 24.3333C29.3337 24.6869 29.1932 25.0261 28.9431 25.2761C28.6931 25.5262 28.3539 25.6666 28.0003 25.6666H22.667ZM16.8443 7.66797C17.0208 7.36138 17.3118 7.13745 17.6534 7.04543C17.9949 6.95341 18.3591 7.00085 18.6657 7.17731C18.9722 7.35377 19.1962 7.64479 19.2882 7.98635C19.3802 8.32792 19.3328 8.69205 19.1563 8.99864L9.94699 24.9933C9.85971 25.1451 9.74337 25.2782 9.60464 25.3851C9.4659 25.4919 9.30748 25.5704 9.13842 25.616C8.96935 25.6617 8.79296 25.6735 8.6193 25.651C8.44565 25.6285 8.27813 25.5719 8.12633 25.4846C7.97452 25.3974 7.84139 25.281 7.73454 25.1423C7.62769 25.0036 7.54921 24.8451 7.50359 24.6761C7.45796 24.507 7.44608 24.3306 7.46863 24.1569C7.49118 23.9833 7.54771 23.8158 7.63499 23.664L16.8443 7.66797ZM5.33366 27.6666C6.00033 26.3333 10.0003 25 8.66699 27.2933C7.94355 28.5302 7.21777 29.7658 6.48966 31C6.3132 31.3066 6.02218 31.5305 5.68061 31.6225C5.33905 31.7145 4.97492 31.6671 4.66833 31.4906C4.36174 31.3142 4.1378 31.0232 4.04578 30.6816C3.95376 30.34 4.0012 29.9759 4.17766 29.6693L5.33366 27.6666ZM12.1777 8.99864C12.0012 8.69205 11.9538 8.32792 12.0458 7.98635C12.1378 7.64479 12.3617 7.35377 12.6683 7.17731C12.9749 7.00085 13.339 6.95341 13.6806 7.04543C14.0222 7.13745 14.3132 7.36138 14.4897 7.66797L16.8137 11.7066C16.9038 11.8585 16.9629 12.0267 16.9875 12.2016C17.0121 12.3765 17.0017 12.5545 16.957 12.7253C16.9122 12.8961 16.834 13.0563 16.7268 13.1967C16.6196 13.337 16.4856 13.4546 16.3326 13.5428C16.1795 13.6309 16.0105 13.6877 15.8354 13.71C15.6602 13.7323 15.4823 13.7195 15.3121 13.6725C15.1419 13.6255 14.9827 13.5451 14.8438 13.4361C14.7049 13.327 14.5891 13.1915 14.503 13.0373L12.1777 8.99864ZM17.3337 18.3333C16.1363 16.3333 17.3337 12.3333 18.2883 14.328L27.155 29.6666C27.3259 29.9727 27.3694 30.3338 27.276 30.6717C27.1826 31.0096 26.96 31.2971 26.6562 31.472C26.3524 31.647 25.992 31.6953 25.6529 31.6064C25.3138 31.5176 25.0233 31.2987 24.8443 30.9973L17.3337 18.3333Z" fill="white"/>
<path d="M45.6225 9.54504C44.8068 9.54504 44.1007 9.5057 43.5127 9.43737V0.585954C44.3347 0.459653 45.165 0.395467 45.9973 0.399608C49.3619 0.399608 50.9106 2.05394 50.9106 4.75182C50.9127 7.86379 49.0824 9.54504 45.6225 9.54504ZM46.1153 1.53425C45.6619 1.53425 45.2747 1.56116 44.9538 1.62742V8.35657C45.1277 8.38349 45.461 8.39591 45.929 8.39591C48.1341 8.39591 49.3888 7.14118 49.3888 4.79116C49.3888 2.6958 48.2542 1.53425 46.1153 1.53425ZM55.7411 9.6113C53.8445 9.6113 52.6167 8.19507 52.6167 6.27364C52.6167 4.27146 53.8715 2.84281 55.8488 2.84281C57.7185 2.84281 58.9732 4.19071 58.9732 6.16804C58.9732 8.19714 57.6791 9.6113 55.7411 9.6113ZM55.795 3.8967C54.7535 3.8967 54.0868 4.86983 54.0868 6.23223C54.0868 7.56771 54.768 8.54292 55.7825 8.54292C56.7971 8.54292 57.4783 7.50145 57.4783 6.20531C57.4783 4.88433 56.8095 3.8967 55.795 3.8967ZM69.7874 2.97739L67.7583 9.46636H66.4353L65.5947 6.6484C65.3855 5.95892 65.2116 5.25909 65.0729 4.55305H65.046C64.9404 5.26116 64.7395 5.96927 64.5263 6.6484L63.6318 9.46636H62.2963L60.3853 2.97739H61.8678L62.6028 6.06245C62.7767 6.79748 62.9216 7.4911 63.0438 8.14538H63.0707C63.1763 7.59876 63.3502 6.91757 63.6049 6.07694L64.5263 2.97946H65.7023L66.5844 6.01068C66.7976 6.74572 66.9716 7.46625 67.1061 8.14745H67.1455C67.2386 7.48075 67.3857 6.77263 67.5865 6.01068L68.3754 2.97946L69.7874 2.97739ZM77.2599 9.46429H75.8168V5.73945C75.8168 4.59239 75.3757 4.01678 74.5082 4.01678C73.6531 4.01678 73.0651 4.75182 73.0651 5.60487V9.46429H71.6219V4.83049C71.6219 4.25696 71.6074 3.64202 71.5681 2.97532H72.8373L72.9056 3.97745H72.945C73.3322 3.28383 74.121 2.84281 75.0031 2.84281C76.3655 2.84281 77.2599 3.88427 77.2599 5.58002V9.46429ZM81.2353 9.46429H79.7921V0H81.2353V9.46429ZM86.4944 9.6113C84.5999 9.6113 83.37 8.19507 83.37 6.27364C83.37 4.27146 84.6247 2.84281 86.602 2.84281C88.4717 2.84281 89.7264 4.19071 89.7264 6.16804C89.7264 8.19714 88.4303 9.6113 86.4944 9.6113ZM86.5482 3.8967C85.5067 3.8967 84.84 4.86983 84.84 6.23223C84.84 7.56771 85.5233 8.54292 86.5337 8.54292C87.5483 8.54292 88.2295 7.50145 88.2295 6.20531C88.2295 4.88433 87.5628 3.8967 86.5482 3.8967ZM95.412 9.46429L95.3064 8.71684H95.2671C94.8261 9.31729 94.1842 9.6113 93.3685 9.6113C92.2048 9.6113 91.3808 8.79759 91.3808 7.70229C91.3808 6.10179 92.7701 5.27358 95.174 5.27358V5.15349C95.174 4.29838 94.7205 3.87185 93.826 3.87185C93.1863 3.87185 92.6252 4.03335 92.1303 4.35428L91.8363 3.40599C92.4367 3.03122 93.1842 2.84488 94.0641 2.84488C95.7599 2.84488 96.615 3.73934 96.615 5.52826V7.91762C96.615 8.5719 96.644 9.07918 96.7082 9.46636L95.412 9.46429ZM95.2133 6.23223C93.6107 6.23223 92.8073 6.61941 92.8073 7.54079C92.8073 8.22199 93.2215 8.55534 93.7971 8.55534C94.53 8.55534 95.2133 7.9963 95.2133 7.23435V6.23223ZM103.622 9.46429L103.553 8.42283H103.514C103.1 9.20962 102.404 9.6113 101.431 9.6113C99.8657 9.6113 98.7083 8.23648 98.7083 6.30056C98.7083 4.27146 99.9092 2.84281 101.549 2.84281C102.417 2.84281 103.032 3.13682 103.379 3.72484H103.408V0H104.852V7.71678C104.852 8.34415 104.866 8.93217 104.905 9.46636L103.622 9.46429ZM103.408 5.64628C103.408 4.73732 102.808 3.96295 101.889 3.96295C100.82 3.96295 100.166 4.91124 100.166 6.24465C100.166 7.55321 100.845 8.44767 101.86 8.44767C102.766 8.44767 103.408 7.65881 103.408 6.72501V5.64628ZM114.005 9.6113C112.111 9.6113 110.881 8.19507 110.881 6.27364C110.881 4.27146 112.136 2.84281 114.113 2.84281C115.983 2.84281 117.237 4.19071 117.237 6.16804C117.239 8.19714 115.943 9.6113 114.005 9.6113ZM114.059 3.8967C113.02 3.8967 112.351 4.86983 112.351 6.23223C112.351 7.56771 113.032 8.54292 114.045 8.54292C115.059 8.54292 115.74 7.50145 115.74 6.20531C115.742 4.88433 115.076 3.8967 114.059 3.8967ZM124.993 9.46429H123.55V5.73945C123.55 4.59239 123.109 4.01678 122.242 4.01678C121.387 4.01678 120.801 4.75182 120.801 5.60487V9.46429H119.357V4.83049C119.357 4.25696 119.343 3.64202 119.304 2.97532H120.573L120.641 3.97745H120.681C121.068 3.28383 121.857 2.84281 122.737 2.84281C124.099 2.84281 124.995 3.88427 124.995 5.58002V9.46429H124.993ZM134.696 4.0582H133.11V7.20951C133.11 8.0108 133.387 8.41247 133.948 8.41247C134.203 8.41247 134.416 8.38556 134.588 8.34415L134.627 9.43945C134.348 9.54711 133.973 9.60094 133.509 9.60094C132.373 9.60094 131.694 8.97358 131.694 7.33167V4.06027H130.747V2.97946H131.694V1.78685L133.11 1.35825V2.97325H134.696V4.0582ZM142.332 9.46429H140.891V5.76637C140.891 4.60481 140.452 4.01678 139.582 4.01678C138.835 4.01678 138.139 4.52406 138.139 5.5531V9.46429H136.698V0H138.139V3.8967H138.168C138.621 3.18858 139.28 2.84074 140.118 2.84074C141.491 2.84074 142.332 3.90912 142.332 5.60487V9.46429ZM150.152 6.56765H145.825C145.852 7.79546 146.665 8.48908 147.87 8.48908C148.51 8.48908 149.1 8.38142 149.62 8.18265L149.844 9.18477C149.231 9.45187 148.508 9.58438 147.668 9.58438C145.638 9.58438 144.435 8.30274 144.435 6.31505C144.435 4.32529 145.665 2.83038 147.504 2.83038C149.162 2.83038 150.202 4.0582 150.202 5.91544C150.212 6.13284 150.196 6.35232 150.152 6.56765ZM148.831 5.53861C148.831 4.53648 148.326 3.83044 147.405 3.83044C146.576 3.83044 145.922 4.55098 145.827 5.53861H148.831Z" fill="white"/>
<path d="M57.4626 32.6459H54.3382L52.6258 27.2688H46.6752L45.0436 32.6459H42L47.8968 14.3364H51.5388L57.4626 32.6459ZM52.1103 25.012L50.5616 20.2311C50.398 19.7425 50.0895 18.5934 49.6381 16.7817H49.5822C49.4 17.5602 49.1101 18.7114 48.7126 20.2311L47.1908 25.012H52.1103ZM72.598 25.8816C72.598 28.126 71.9892 29.9025 70.7676 31.2048C69.6744 32.3643 68.3162 32.9441 66.697 32.9441C64.9474 32.9441 63.6906 32.3208 62.9266 31.0723V38.0002H59.9927V23.7841C59.9927 22.3741 59.9554 20.9289 59.883 19.4444H62.4628L62.6264 21.5376H62.6823C63.6617 19.962 65.1462 19.1731 67.138 19.1731C68.6951 19.1731 69.9953 19.7881 71.0368 21.02C72.0762 22.252 72.598 23.8711 72.598 25.8816ZM69.6082 25.9892C69.6082 24.7034 69.3183 23.6454 68.7385 22.8089C68.105 21.9414 67.2519 21.5066 66.1835 21.5066C65.4589 21.5066 64.8025 21.7488 64.2145 22.2271C63.6265 22.7095 63.2393 23.3369 63.0591 24.1154C62.9784 24.4074 62.9328 24.7055 62.9225 25.0078V27.2108C62.9225 28.1695 63.2165 28.979 63.8066 29.6437C64.3946 30.3042 65.1607 30.6355 66.1028 30.6355C67.2084 30.6355 68.0677 30.2069 68.6826 29.3579C69.2996 28.507 69.6082 27.3848 69.6082 25.9892ZM87.7851 25.8816C87.7851 28.126 87.1764 29.9025 85.9548 31.2048C84.8616 32.3643 83.5033 32.9441 81.8821 32.9441C80.1325 32.9441 78.8757 32.3208 78.1117 31.0723V38.0002H75.1778V23.7841C75.1778 22.3741 75.1405 20.9289 75.0681 19.4444H77.6479L77.8115 21.5376H77.8674C78.8447 19.962 80.3292 19.1731 82.3231 19.1731C83.8802 19.1731 85.1804 19.7881 86.224 21.02C87.2634 22.252 87.7851 23.8711 87.7851 25.8816ZM84.7953 25.9892C84.7953 24.7034 84.5055 23.6454 83.9236 22.8089C83.2901 21.9414 82.4412 21.5066 81.3728 21.5066C80.6481 21.5066 79.9918 21.7488 79.4017 22.2271C78.8136 22.7095 78.4285 23.3369 78.2484 24.1154C78.1594 24.4778 78.1117 24.7738 78.1117 25.0078V27.2108C78.1117 28.1695 78.4078 28.979 78.9938 29.6437C79.5818 30.3021 80.3479 30.6355 81.292 30.6355C82.3977 30.6355 83.259 30.2069 83.8719 29.3579C84.4868 28.507 84.7953 27.3848 84.7953 25.9892ZM104.767 27.509C104.767 29.0681 104.223 30.3352 103.14 31.3125C101.947 32.3809 100.285 32.9151 98.1522 32.9151C96.181 32.9151 94.6013 32.5362 93.4107 31.7742L94.0898 29.329C95.3756 30.0909 96.7898 30.4698 98.3282 30.4698C99.4338 30.4698 100.295 30.2193 100.908 29.7224C101.523 29.2234 101.834 28.5587 101.834 27.7285C101.834 26.9851 101.577 26.3619 101.072 25.8526C100.564 25.3453 99.7237 24.8753 98.5456 24.4405C95.3384 23.2458 93.7337 21.4962 93.7337 19.1959C93.7337 17.6927 94.301 16.4628 95.4315 15.5021C96.562 14.5414 98.0631 14.061 99.9287 14.061C101.595 14.061 102.983 14.3509 104.086 14.9306L103.349 17.3221C102.312 16.761 101.14 16.4794 99.8314 16.4794C98.7961 16.4794 97.9845 16.7341 97.4047 17.2393C96.9161 17.6927 96.6676 18.2435 96.6676 18.8977C96.6676 19.6203 96.9492 20.2208 97.5103 20.6908C97.9969 21.1235 98.8872 21.5956 100.171 22.1029C101.749 22.7385 102.906 23.4777 103.649 24.3287C104.397 25.1838 104.767 26.246 104.767 27.509ZM114.493 21.6453H111.258V28.0556C111.258 29.6851 111.828 30.4988 112.971 30.4988C113.495 30.4988 113.929 30.4553 114.273 30.3621L114.354 32.59C113.776 32.8053 113.014 32.9151 112.072 32.9151C110.913 32.9151 110.008 32.561 109.354 31.855C108.703 31.1469 108.374 29.9625 108.374 28.2958V21.6412H106.449V19.4402H108.374V17.0239L111.256 16.1543V19.4402H114.491L114.493 21.6453ZM129.055 25.9354C129.055 27.9645 128.475 29.6313 127.315 30.9336C126.102 32.2753 124.491 32.9441 122.479 32.9441C120.539 32.9441 118.996 32.3022 117.845 31.0185C116.694 29.7327 116.12 28.1115 116.12 26.1569C116.12 24.1113 116.714 22.4362 117.899 21.1318C119.087 19.8274 120.686 19.1752 122.696 19.1752C124.634 19.1752 126.191 19.8191 127.367 21.1049C128.495 22.3513 129.055 23.9601 129.055 25.9354ZM126.013 26.0037C126.013 24.7945 125.752 23.7572 125.226 22.8897C124.611 21.842 123.731 21.3182 122.59 21.3182C121.414 21.3182 120.514 21.842 119.901 22.8897C119.375 23.7572 119.114 24.8132 119.114 26.0596C119.114 27.2709 119.375 28.3103 119.901 29.1757C120.534 30.2234 121.421 30.7473 122.566 30.7473C123.688 30.7473 124.566 30.2131 125.201 29.1488C125.742 28.2585 126.013 27.215 126.013 26.0037ZM138.595 22.0221C138.291 21.9662 137.98 21.9393 137.67 21.9414C136.639 21.9414 135.84 22.3286 135.278 23.1112C134.792 23.7986 134.545 24.6682 134.545 25.718V32.6459H131.612V23.6019C131.614 22.2168 131.587 20.8295 131.527 19.4464H134.082L134.189 21.9724H134.27C134.581 21.1049 135.067 20.4051 135.736 19.8792C136.349 19.4216 137.092 19.1731 137.856 19.171C138.127 19.171 138.372 19.1897 138.589 19.2249L138.595 22.0221ZM151.716 25.4198C151.725 25.865 151.687 26.3122 151.609 26.7512H142.807C142.84 28.0556 143.266 29.0536 144.084 29.7431C144.826 30.3559 145.784 30.6644 146.962 30.6644C148.265 30.6644 149.455 30.4574 150.524 30.0412L150.983 32.0765C149.735 32.6211 148.258 32.8923 146.557 32.8923C144.509 32.8923 142.902 32.2898 141.732 31.0868C140.564 29.8839 139.981 28.2647 139.981 26.2377C139.981 24.2479 140.525 22.5915 141.612 21.2685C142.751 19.8564 144.291 19.1503 146.229 19.1503C148.132 19.1503 149.573 19.8564 150.553 21.2685C151.327 22.3865 151.716 23.7738 151.716 25.4198ZM148.919 24.66C148.94 23.7883 148.747 23.0388 148.35 22.4052C147.842 21.5873 147.06 21.1815 146.012 21.1815C145.053 21.1815 144.271 21.5791 143.676 22.3762C143.188 23.0098 142.898 23.7717 142.809 24.6579L148.919 24.66Z" fill="white"/>
</svg>
