<svg width="66" height="55" viewBox="0 0 66 55" fill="none" xmlns="http://www.w3.org/2000/svg">
<path fill-rule="evenodd" clip-rule="evenodd" d="M35.0623 1.1932L51.0727 3.71951L56.4629 8.97293L48.056 13.8959L30.8061 15.567L14.7866 13.0247L9.39648 7.77124L17.7969 2.87365L35.0623 1.1932Z" fill="url(#paint0_radial_1620_436728)"/>
<path fill-rule="evenodd" clip-rule="evenodd" d="M9.3955 7.77117L0.837537 18.0864L8.18256 25.261L14.7857 13.0246L9.3955 7.77117Z" fill="url(#paint1_radial_1620_436728)"/>
<path fill-rule="evenodd" clip-rule="evenodd" d="M14.7825 13.0241L8.17941 25.2605L30.037 28.7099L30.802 15.5664L14.7825 13.0241Z" fill="url(#paint2_radial_1620_436728)"/>
<path fill-rule="evenodd" clip-rule="evenodd" d="M30.8051 15.5665L48.0549 13.8953L53.6007 26.4181L30.0401 28.7099L30.8051 15.5665Z" fill="url(#paint3_radial_1620_436728)"/>
<path fill-rule="evenodd" clip-rule="evenodd" d="M56.4616 8.97285L65.0553 19.7363L53.6005 26.4186L48.0547 13.8958L56.4616 8.97285Z" fill="url(#paint4_radial_1620_436728)"/>
<path fill-rule="evenodd" clip-rule="evenodd" d="M8.18262 25.261L33.0209 53.9512L30.0403 28.7104L8.18262 25.261Z" fill="url(#paint5_radial_1620_436728)"/>
<path fill-rule="evenodd" clip-rule="evenodd" d="M30.0403 28.7108L53.6009 26.4189L33.021 53.9516L30.0403 28.7108Z" fill="url(#paint6_radial_1620_436728)"/>
<path fill-rule="evenodd" clip-rule="evenodd" d="M65.053 19.7369L33.0182 53.9519L53.5982 26.4192L65.053 19.7369Z" fill="url(#paint7_radial_1620_436728)"/>
<path fill-rule="evenodd" clip-rule="evenodd" d="M0.837891 18.0862L33.0212 53.9511L8.18291 25.2609L0.837891 18.0862Z" fill="#B3EAFF"/>
<path style="mix-blend-mode:screen" opacity="0.5" fill-rule="evenodd" clip-rule="evenodd" d="M21.7979 2.47607C27.6644 3.98859 41.6373 11.2543 45.8577 14.0953L48.0468 13.8801L51.9045 11.6363L52.5585 11.245C49.2583 10.558 34.5828 3.41213 32.2794 1.4633L21.7979 2.47607Z" fill="url(#paint8_radial_1620_436728)"/>
<g style="mix-blend-mode:screen" opacity="0.75">
<path fill-rule="evenodd" clip-rule="evenodd" d="M14.336 32.3542C10.9167 26.6084 14.2526 26.952 18.1763 28.0816C30.5068 31.6507 30.6181 37.9162 32.4672 49.1951C31.6601 42.3585 30.862 35.5379 30.0549 28.7014C22.766 27.5462 15.4862 26.4071 8.19727 25.252C10.2353 27.6171 12.298 29.989 14.336 32.3542Z" fill="#CDE6FF"/>
</g>
<path style="mix-blend-mode:screen" opacity="0.5" fill-rule="evenodd" clip-rule="evenodd" d="M37.3612 28.001C47.0262 27.0904 46.2255 33.2148 41.649 40.3964L33.0201 53.9523L53.6001 26.4196L37.3612 28.001Z" fill="url(#paint9_radial_1620_436728)"/>
<g style="mix-blend-mode:screen">
<path fill-rule="evenodd" clip-rule="evenodd" d="M14.7859 13.025L9.85864 8.22448C12.1126 10.8254 13.0735 11.6456 12.9463 13.4175C12.8281 15.2054 11.7855 18.3836 10.7713 20.4285L14.7704 13.0344L14.7859 13.025Z" fill="#BDF2FF"/>
</g>
<path fill-rule="evenodd" clip-rule="evenodd" d="M30.805 15.5673L14.7856 13.025L10.7865 20.4191C12.8809 16.8907 14.375 15.181 15.7958 14.9319C17.2166 14.6828 19.2675 14.8508 22.6732 15.2815C26.2978 15.7314 28.5145 17.0452 29.1354 18.1119C29.8917 19.4194 30.1472 22.7224 30.1563 26.6235L30.7895 15.5766L30.805 15.5673Z" fill="white"/>
<g style="mix-blend-mode:screen" opacity="0.5">
<path fill-rule="evenodd" clip-rule="evenodd" d="M30.8046 15.5675L30.1714 26.6144C30.5779 21.7133 31.5119 19.0079 32.6327 17.9295C34.1418 16.4684 37.0051 15.5279 42.9866 14.3958L30.789 15.5768L30.8046 15.5675Z" fill="#BDF2FF"/>
</g>
<path style="mix-blend-mode:screen" fill-rule="evenodd" clip-rule="evenodd" d="M15.412 4.25772L9.39648 7.77124L13.0296 11.307L14.7867 13.0247L30.7971 15.551L37.485 14.8978C32.4946 13.8699 17.2295 6.71189 15.412 4.25772Z" fill="url(#paint10_radial_1620_436728)"/>
<defs>
<radialGradient id="paint0_radial_1620_436728" cx="0" cy="0" r="1" gradientUnits="userSpaceOnUse" gradientTransform="translate(15.8583 13.0059) rotate(-30.8943) scale(50.7901 51.5558)">
<stop stop-color="#F2F9FF"/>
<stop offset="0.33" stop-color="#7AC1FF"/>
<stop offset="1" stop-color="#0029DE"/>
</radialGradient>
<radialGradient id="paint1_radial_1620_436728" cx="0" cy="0" r="1" gradientUnits="userSpaceOnUse" gradientTransform="translate(-3.6949 12.8778) rotate(-30.8943) scale(19.3071 19.5982)">
<stop stop-color="#D3E9FF"/>
<stop offset="1" stop-color="#4D86F5"/>
</radialGradient>
<radialGradient id="paint2_radial_1620_436728" cx="0" cy="0" r="1" gradientUnits="userSpaceOnUse" gradientTransform="translate(15.8612 14.4607) rotate(-30.8943) scale(55.8346 56.6764)">
<stop stop-color="#D3E9FF"/>
<stop offset="1" stop-color="#2E7BFF"/>
</radialGradient>
<radialGradient id="paint3_radial_1620_436728" cx="0" cy="0" r="1" gradientUnits="userSpaceOnUse" gradientTransform="translate(45.7811 49.2563) rotate(-30.8943) scale(38.8139 39.399)">
<stop offset="0.142332" stop-color="#D3E9FF"/>
<stop offset="1" stop-color="#005AF0"/>
</radialGradient>
<radialGradient id="paint4_radial_1620_436728" cx="0" cy="0" r="1" gradientUnits="userSpaceOnUse" gradientTransform="translate(56.4359 -0.692431) rotate(-30.8943) scale(28.1986 28.6237)">
<stop stop-color="#7AC1FF"/>
<stop offset="1" stop-color="#0029DE"/>
</radialGradient>
<radialGradient id="paint5_radial_1620_436728" cx="0" cy="0" r="1" gradientUnits="userSpaceOnUse" gradientTransform="translate(15.4608 46.8572) rotate(-30.8943) scale(24.6238 24.9951)">
<stop stop-color="#D3E9FF"/>
<stop offset="1" stop-color="#4D86F5"/>
</radialGradient>
<radialGradient id="paint6_radial_1620_436728" cx="0" cy="0" r="1" gradientUnits="userSpaceOnUse" gradientTransform="translate(42.9344 57.7006) rotate(-30.8943) scale(45.2738 45.9563)">
<stop stop-color="#A5E2FF"/>
<stop offset="1" stop-color="#0023DE"/>
</radialGradient>
<radialGradient id="paint7_radial_1620_436728" cx="0" cy="0" r="1" gradientUnits="userSpaceOnUse" gradientTransform="translate(34.5124 55.0541) rotate(-30.8943) scale(41.0821 41.7015)">
<stop stop-color="#D3E9FF"/>
<stop offset="1" stop-color="#2E75FF"/>
</radialGradient>
<radialGradient id="paint8_radial_1620_436728" cx="0" cy="0" r="1" gradientUnits="userSpaceOnUse" gradientTransform="translate(49.4683 14.4462) rotate(-30.8943) scale(23.9706 24.332)">
<stop stop-color="#0A003B"/>
<stop offset="1" stop-color="white"/>
</radialGradient>
<radialGradient id="paint9_radial_1620_436728" cx="0" cy="0" r="1" gradientUnits="userSpaceOnUse" gradientTransform="translate(30.2355 29.6888) rotate(-30.8943) scale(25.767 26.1555)">
<stop offset="0.31" stop-color="#0A003B"/>
<stop offset="1" stop-color="#4AA5FF"/>
</radialGradient>
<radialGradient id="paint10_radial_1620_436728" cx="0" cy="0" r="1" gradientUnits="userSpaceOnUse" gradientTransform="translate(30.7202 -16.9223) rotate(-30.8943) scale(41.8261 42.4567)">
<stop offset="0.57" stop-color="#0A003B"/>
<stop offset="0.6" stop-color="#0B0A39"/>
<stop offset="0.63" stop-color="#182245"/>
<stop offset="0.68" stop-color="#293E5F"/>
<stop offset="0.72" stop-color="#3F6185"/>
<stop offset="0.77" stop-color="#618DB0"/>
<stop offset="0.82" stop-color="#90BEDE"/>
<stop offset="0.86" stop-color="#B3E1FF"/>
</radialGradient>
</defs>
</svg>
