<?xml version="1.0" standalone="no"?>
<!DOCTYPE svg PUBLIC "-//W3C//DTD SVG 20010904//EN"
 "http://www.w3.org/TR/2001/REC-SVG-20010904/DTD/svg10.dtd">
<svg version="1.0" xmlns="http://www.w3.org/2000/svg"
 width="97.000000pt" height="97.000000pt" viewBox="0 0 97.000000 97.000000"
 preserveAspectRatio="xMidYMid meet">
<metadata>
Created by potrace 1.14, written by Peter Selinger 2001-2017
</metadata>
<g transform="translate(0.000000,97.000000) scale(0.100000,-0.100000)"
fill="#000000" stroke="none">
<path d="M383 956 c-240 -59 -403 -296 -366 -535 43 -280 324 -468 592 -396
90 24 158 65 225 135 94 100 136 201 136 331 0 301 -295 536 -587 465z m-43
-441 l0 -215 -55 0 -55 0 2 187 3 187 45 27 c25 15 48 28 53 28 4 1 7 -96 7
-214z m465 115 l-39 -40 -123 0 -123 0 0 -105 0 -105 158 0 157 -1 -42 -39
-42 -40 -128 0 -127 0 -43 42 -43 42 0 101 0 101 42 42 41 42 176 0 175 0 -39
-40z m-55 -115 c0 -12 17 -15 89 -15 84 0 89 -1 84 -20 -5 -18 -14 -20 -89
-20 -68 0 -84 -3 -84 -15 0 -12 -16 -15 -80 -15 l-80 0 0 50 0 50 80 0 c64 0
80 -3 80 -15z"/>
</g>
</svg>
